<svg width="357" height="530" viewBox="0 0 357 530" fill="none" xmlns="http://www.w3.org/2000/svg">
<g id="Group 73">
<g id="mapSvg">
<g id="jeju">
<path id="Vector 23" d="M111 487.724V482.111C111 480.241 109.956 478.527 108.294 477.669L102.269 474.557C101.56 474.191 100.773 474 99.975 474H93.9464C93.1797 474 92.4234 474.176 91.7358 474.515L90.5615 475.094C89.5771 475.579 88.4604 475.727 87.3837 475.515L85.6849 475.18C84.8249 475.01 83.9355 475.07 83.1058 475.352L60.2181 483.147C59.2177 483.488 58.351 484.136 57.7424 485L49.4407 496.785C48.0325 498.784 48.2768 501.509 50.0182 503.225L53.6128 506.769C54.9939 508.13 57.0377 508.571 58.8567 507.898L61.6166 506.878C62.7355 506.464 63.9653 506.464 65.0841 506.878L66.2485 507.308C66.8035 507.513 67.3905 507.618 67.9822 507.618H74.1395C75.0277 507.618 75.8997 507.38 76.6642 506.928C77.4288 506.475 78.3007 506.237 79.189 506.237H82.4092C83.3851 506.237 84.3397 505.951 85.1552 505.415L86.8594 504.295C87.6749 503.759 88.6295 503.474 89.6054 503.474H91.483C92.6253 503.474 93.733 503.083 94.6221 502.366L97.0129 500.437C97.902 499.72 99.0098 499.329 100.152 499.329H101.736C103.434 499.329 105.016 498.467 105.937 497.041L110.201 490.435C110.723 489.627 111 488.686 111 487.724Z" fill="#053C57" stroke="#F7F8F9" stroke-width="1.5"/>
<rect id="Rectangle 67" x="78" y="492" width="74" height="28" rx="14" fill="#229FBD"/>
<path id="&#236;&#160;&#156;&#236;&#163;&#188;&#235;&#143;&#132;" d="M103.766 498.608H105.782V513.424H103.766V498.608ZM98.8859 503.664H101.334V505.392H98.8859V503.664ZM100.774 498.848H102.758V512.752H100.774V498.848ZM95.6859 501.024H97.2859V502.544C97.2859 505.872 96.3739 509.184 94.0219 510.656L92.7579 509.088C94.9339 507.728 95.6859 505.072 95.6859 502.544V501.024ZM96.1659 501.024H97.7499V502.544C97.7499 505.008 98.4859 507.504 100.63 508.752L99.3819 510.304C97.0299 508.912 96.1659 505.808 96.1659 502.544V501.024ZM93.3179 500.096H99.9259V501.808H93.3179V500.096ZM113.269 500.256H115.109V500.688C115.109 503.296 112.981 505.424 109.221 505.936L108.437 504.272C111.701 503.872 113.269 502.208 113.269 500.688V500.256ZM113.877 500.256H115.717V500.688C115.717 502.208 117.285 503.872 120.549 504.272L119.781 505.936C116.005 505.424 113.877 503.296 113.877 500.688V500.256ZM113.381 508H115.493V513.44H113.381V508ZM107.797 506.784H121.189V508.48H107.797V506.784ZM108.981 499.36H119.973V501.04H108.981V499.36ZM124.067 505.216H134.483V506.912H124.067V505.216ZM122.515 510.016H135.923V511.76H122.515V510.016ZM128.131 505.984H130.259V510.576H128.131V505.984ZM124.067 499.616H134.371V501.328H126.195V505.952H124.067V499.616Z" fill="#F7F8F9"/>
</g>
<g id="jeonbuk">
<path id="Vector 20" d="M79.3825 283.162H81.1292C81.8846 283.162 82.543 282.648 82.7259 281.915C83.0982 280.423 85.5062 280.107 86.9401 280.662C88.8429 281.399 90.7992 280.638 91.5 279C92.6447 276.325 98.2032 270.733 100.245 268.732C100.741 268.246 101.337 267.878 101.989 267.643L106.328 266.075C107.706 265.577 109.233 265.709 110.505 266.435L114.026 268.444C114.667 268.81 115.22 269.314 115.643 269.919L116.457 271.081C117.679 272.828 119.876 273.607 121.926 273.021L130.818 270.481C131.907 270.169 133.069 270.237 134.115 270.673L136.347 271.603C137.712 272.171 138.755 273.315 139.196 274.727L140.178 277.869C140.69 279.507 142.006 280.768 143.664 281.209L148.996 282.629C150.176 282.943 151.419 282.419 152.018 281.356C152.329 280.803 152.826 280.379 153.421 280.159L164.042 276.225C165.295 275.761 166.682 275.818 167.893 276.383L171.827 278.219C172.907 278.723 174.131 278.825 175.279 278.506L178.678 277.562C180.517 277.051 182.295 278.548 182.105 280.447C182.038 281.124 182.227 281.802 182.635 282.346L183.283 283.211C184.318 284.59 184.397 286.464 183.484 287.926L183.33 288.171C182.802 289.017 182.656 290.047 182.93 291.007C183.282 292.237 182.939 293.561 182.034 294.466L179.784 296.716C179.268 297.232 178.644 297.629 177.958 297.879L175.472 298.783C174.221 299.238 173.231 300.218 172.763 301.465C172.28 302.752 171.242 303.753 169.938 304.187L168.549 304.65C166.957 305.181 165.738 306.474 165.302 308.094L161.569 321.963C161.206 323.312 161.424 324.75 162.169 325.931L165.525 331.248C165.839 331.745 166.063 332.294 166.186 332.869L167.003 336.681C167.318 338.149 166.956 339.68 166.018 340.852L164.596 342.63C163.886 343.517 163.5 344.619 163.5 345.754V347.204C163.5 347.73 163.403 348.252 163.214 348.743C162.141 351.532 158.616 352.396 156.375 350.419L153.322 347.725C152.78 347.247 152.142 346.893 151.45 346.685L150.504 346.401C148.667 345.85 146.677 346.398 145.381 347.812L143.486 349.879C142.539 350.912 141.202 351.5 139.8 351.5H126.385C125.479 351.5 124.59 351.746 123.812 352.213L122.127 353.224C120.787 354.028 119.148 354.159 117.697 353.579L115.093 352.537C113.505 351.902 112.414 350.422 112.277 348.717L112.019 345.483C111.814 342.93 108.712 341.788 106.901 343.599C105.819 344.681 104.096 344.777 102.901 343.821L98.1719 340.037C95.4354 337.848 91.3543 339.08 90.2863 342.418L89.2732 345.584C88.7872 347.102 87.606 348.298 86.0934 348.803L81.7764 350.243C81.2662 350.413 80.7319 350.5 80.1941 350.5H73.1511C71.2256 350.5 69.4712 349.394 68.6404 347.657L65.2891 340.65C64.7795 339.585 64.6636 338.373 64.9617 337.23L66.1724 332.59C66.6338 330.822 68.0231 329.446 69.7959 329.002L75.8362 327.49C76.15 327.411 76.4468 327.276 76.7117 327.09L78.8114 325.618C79.7197 324.981 79.5158 323.581 78.4636 323.23C78.2826 323.169 78.0909 323.148 77.901 323.167L71.3608 323.822C69.8082 323.978 68.3136 323.188 67.5674 321.817C66.6543 320.141 67.0972 318.049 68.6115 316.886L78.4661 309.318C79.4754 308.543 80.0671 307.342 80.0671 306.07V303.852C80.0671 302.815 80.9079 301.974 81.9451 301.974C82.9823 301.974 83.8232 301.134 83.8232 300.096V295.57C83.8232 294.432 82.9004 293.509 81.7621 293.509C81.274 293.509 80.8017 293.336 80.4294 293.02L76.8726 290.005C74.1151 287.668 75.7679 283.162 79.3825 283.162Z" fill="#053C57" stroke="#F7F8F9" stroke-width="1.5"/>
<rect id="Rectangle 67_2" x="86" y="297" width="74" height="28" rx="14" fill="#229FBD"/>
<path id="&#236;&#160;&#132;&#235;&#157;&#188;&#235;&#182;&#129;&#235;&#143;&#132;" d="M102.639 307.432H106.095V309.144H102.639V307.432ZM104.975 303.624H107.103V314.424H104.975V303.624ZM97.3265 316.472H107.439V318.168H97.3265V316.472ZM97.3265 313.512H99.4545V317.48H97.3265V313.512ZM98.1265 305.56H99.8545V306.488C99.8545 309.272 98.5425 311.848 95.6945 312.792L94.6225 311.096C97.0705 310.296 98.1265 308.36 98.1265 306.488V305.56ZM98.5745 305.56H100.287V306.488C100.287 308.216 101.295 310.056 103.631 310.84L102.591 312.504C99.8385 311.592 98.5745 309.128 98.5745 306.488V305.56ZM95.1985 304.616H103.167V306.296H95.1985V304.616ZM118.925 303.592H121.037V318.456H118.925V303.592ZM120.557 309.192H123.181V310.952H120.557V309.192ZM110.029 313.272H111.277C113.789 313.272 115.741 313.192 117.917 312.808L118.125 314.52C115.885 314.92 113.853 315.016 111.277 315.016H110.029V313.272ZM110.013 304.856H116.829V310.6H112.141V313.928H110.029V308.904H114.717V306.552H110.013V304.856ZM129.756 311.944H131.868V314.184H129.756V311.944ZM124.14 310.664H137.532V312.344H124.14V310.664ZM125.628 313.592H135.916V318.424H133.788V315.272H125.628V313.592ZM125.852 303.976H127.948V305.288H133.724V303.976H135.836V309.704H125.852V303.976ZM127.948 306.872V308.04H133.724V306.872H127.948ZM140.427 310.216H150.843V311.912H140.427V310.216ZM138.875 315.016H152.283V316.76H138.875V315.016ZM144.491 310.984H146.619V315.576H144.491V310.984ZM140.427 304.616H150.731V306.328H142.555V310.952H140.427V304.616Z" fill="#F7F8F9"/>
</g>
<g id="jeonnam">
<path id="Vector 19" d="M167.706 391.222L172.896 387.324C174.153 386.379 174.893 384.898 174.893 383.326V381.59C174.893 380.556 174.572 379.546 173.974 378.702L171 374.5L164.965 366.373C164.694 366.008 164.474 365.609 164.312 365.184L160.319 354.786C160.017 354 159.522 353.303 158.879 352.76L153.74 348.417C152.837 347.654 151.694 347.235 150.512 347.235H148.778C147.451 347.235 146.178 347.763 145.24 348.703L143.472 350.474C142.534 351.413 141.261 351.941 139.933 351.941H131.201H128.382H125.434C124.625 351.941 123.861 352.309 123.356 352.941C122.699 353.763 121.618 354.121 120.6 353.853L115.821 352.593C114.961 352.366 114.839 351.195 115.635 350.796C115.961 350.633 116.168 350.299 116.168 349.933V348.557C116.168 347.711 115.832 346.899 115.234 346.3L114.758 345.823C114.153 345.217 113.793 344.41 113.745 343.555L113.592 340.789C113.493 339.011 111.391 338.128 110.052 339.301C109.751 339.566 109.53 339.91 109.414 340.294L108.707 342.656C108.395 343.698 107.436 344.412 106.348 344.412C105.716 344.412 105.107 344.168 104.649 343.731L97.211 336.635C96.1563 335.629 94.6318 335.289 93.2493 335.75C92.0106 336.164 91.0578 337.165 90.7062 338.423L88.762 345.378C88.2784 347.108 86.9038 348.446 85.1612 348.882L83.0924 349.4C82.6016 349.523 82.1534 349.777 81.796 350.135L81.4609 350.471C80.6301 351.303 79.3013 351.364 78.3985 350.61C77.6639 349.997 76.6238 349.91 75.7976 350.393L75.1861 350.75C73.3368 351.831 70.965 350.878 70.3775 348.818L68.2511 341.363C67.9714 340.382 67.0753 339.706 66.0554 339.706C65.112 339.706 64.2657 340.286 63.9256 341.166L59.38 352.929C59.062 353.752 58.2707 354.294 57.3887 354.294C56.8219 354.294 56.2783 354.52 55.8779 354.921L55.3275 355.472C54.5763 356.224 54.1544 357.244 54.1544 358.307V360.312C54.1544 361.768 55.109 363.052 56.5034 363.471C57.8977 363.89 58.8523 365.173 58.8523 366.629V366.839C58.8523 367.841 59.2726 368.798 60.011 369.476L64.1809 373.304C64.3852 373.492 64.5534 373.715 64.6773 373.964L64.9667 374.543C65.4516 375.515 64.9354 376.688 63.8918 376.986C63.1363 377.203 62.3298 376.884 61.926 376.21L61.396 375.325C61.2667 375.109 61.1115 374.91 60.9337 374.732L58.4844 372.278C58.1068 371.9 57.8047 371.453 57.5945 370.962C56.9326 369.415 55.4121 368.412 53.7295 368.412H51.9491C50.6797 368.412 49.4887 369.025 48.7517 370.059C48.0147 371.092 46.8236 371.706 45.5543 371.706H45.2282H44.0245C42.3541 371.706 41 373.06 41 374.73C41 376.235 42.1064 377.511 43.5961 377.724L46.0628 378.077C46.9318 378.202 47.5772 378.946 47.5772 379.824V379.864C47.5772 380.816 48.349 381.588 49.3012 381.588C49.705 381.588 50.096 381.446 50.406 381.188L51.4576 380.31C52.2894 379.616 53.3384 379.235 54.4219 379.235H56.4217C57.3042 379.235 58.0797 379.82 58.3217 380.669C58.6166 381.703 58.0309 382.783 57.0037 383.099L55.3703 383.603C53.8097 384.084 52.745 385.526 52.745 387.159V387.89C52.745 390.006 54.1555 391.863 56.1941 392.43L56.9259 392.634C59.3651 393.313 60.912 395.707 60.5276 398.21L60.4855 398.484C60.3394 399.435 59.922 400.324 59.2833 401.044L58.6327 401.777C57.37 403.2 57.1945 405.284 58.2016 406.898L58.5897 407.52C58.7614 407.795 58.8523 408.113 58.8523 408.437C58.8523 409.913 57.1255 410.713 55.9999 409.759L54.4576 408.452C53.4677 407.613 52.0177 407.607 51.0215 408.439L50.9337 408.512C50.2952 409.045 49.9262 409.834 49.9262 410.665V420.32C49.9262 421.727 50.5192 423.069 51.5597 424.017L54.2542 426.471C54.807 426.974 55.4657 427.347 56.1817 427.562L61.4301 429.139C63.2958 429.7 64.666 431.293 64.941 433.222L65.7316 438.765C65.8367 439.502 66.2962 440.14 66.9613 440.473C67.9697 440.978 68.4539 442.147 68.0978 443.217L66.8388 447C66.6421 447.591 67.2948 447.95 68.1637 448.158C69.5315 448.486 70.7447 449.446 70.9433 450.838C71.2267 452.825 73.4333 453.892 75.1662 452.879L75.8948 452.454C76.7106 451.977 77.2907 451.181 77.4954 450.259L78.4627 445.899C78.831 444.239 80.0177 442.879 81.613 442.291L86.6406 440.435C87.4795 440.126 88.1134 439.425 88.3374 438.559L88.6591 437.316C89.3031 434.828 92.8655 434.914 93.3888 437.431C93.5338 438.128 93.9774 438.726 94.6023 439.068L96.7164 440.223C98.0264 440.938 99.5877 441.031 100.973 440.476L105.57 438.634C107.191 437.985 108.356 436.536 108.643 434.814L110.202 425.445C110.412 424.178 111.103 423.04 112.131 422.268L117.409 418.303C117.832 417.985 118.201 417.603 118.504 417.169L119.746 415.392C120.669 414.071 122.398 413.591 123.87 414.246L123.992 414.3C124.97 414.736 126.104 414.639 126.995 414.044L127.185 413.917C127.933 413.418 128.382 412.578 128.382 411.678V410.876C128.382 409.432 129.797 408.413 131.166 408.871C132.029 409.159 132.611 409.966 132.611 410.876V411.163C132.611 411.813 132.359 412.438 131.908 412.906L121.239 423.989C120.397 424.864 119.926 426.031 119.926 427.246C119.926 429.839 122.028 431.941 124.621 431.941H128.868C131.087 431.941 133.04 433.404 133.665 435.533L134.543 438.521C134.79 439.363 135.562 439.941 136.439 439.941C137.248 439.941 137.975 439.449 138.275 438.698L138.965 436.97C139.41 435.856 140.263 434.952 141.35 434.444L143.944 433.232C145.431 432.537 146.008 430.72 145.195 429.294L145.07 429.075C144.91 428.795 144.825 428.477 144.825 428.154C144.825 427.127 145.658 426.294 146.685 426.294H146.705H147.765C150.293 426.294 152.342 424.245 152.342 421.717C152.342 420.435 151.805 419.212 150.861 418.346L143.141 411.258C142.191 410.385 142.495 408.816 143.703 408.363C144.378 408.109 144.825 407.464 144.825 406.743V404.176C144.825 403.03 145.495 401.989 146.539 401.514L149.575 400.132C149.848 400.007 150.078 399.805 150.237 399.551C150.977 398.365 152.79 398.717 153.032 400.094L153.528 402.91C153.657 403.642 154.294 404.176 155.038 404.176C155.884 404.176 156.57 404.863 156.57 405.709V406.267C156.57 406.742 156.732 407.202 157.027 407.572L157.315 407.932C157.961 408.741 157.897 409.907 157.165 410.64C156.784 411.021 156.57 411.538 156.57 412.077V418.765C156.57 420.064 157.624 421.118 158.923 421.118H162.204C163.503 421.118 164.557 420.064 164.557 418.765V417.069C164.557 416.337 164.32 415.624 163.881 415.038L163.561 414.611C162.571 413.288 162.893 411.405 164.268 410.487L164.33 410.446C165.31 409.791 166.597 409.827 167.54 410.535C168.752 411.446 170.471 411.216 171.401 410.018L172.041 409.193C172.655 408.403 172.872 407.374 172.63 406.403L172.54 406.045C172.26 404.924 172.721 403.744 173.682 403.103C174.435 402.599 174.893 401.75 174.893 400.844C174.893 400.258 174.703 399.688 174.351 399.218L174.09 398.869C172.923 397.31 170.807 396.811 169.066 397.683L168.248 398.093C166.105 399.166 163.502 398.568 162.043 396.667L160.174 394.234C159.97 393.968 159.859 393.642 159.859 393.306C159.859 392.352 160.726 391.633 161.663 391.809L166.395 392.698C166.904 392.794 167.376 392.403 167.376 391.884C167.376 391.624 167.498 391.379 167.706 391.222Z" fill="#053C57" stroke="#F7F8F9" stroke-width="1.5"/>
<rect id="Rectangle 67_3" x="69" y="370" width="74" height="28" rx="14" fill="#229FBD"/>
<path id="&#236;&#160;&#132;&#235;&#157;&#188;&#235;&#130;&#168;&#235;&#143;&#132;" d="M84.6385 380.432H88.0945V382.144H84.6385V380.432ZM86.9745 376.624H89.1025V387.424H86.9745V376.624ZM79.3265 389.472H89.4385V391.168H79.3265V389.472ZM79.3265 386.512H81.4545V390.48H79.3265V386.512ZM80.1265 378.56H81.8545V379.488C81.8545 382.272 80.5425 384.848 77.6945 385.792L76.6225 384.096C79.0705 383.296 80.1265 381.36 80.1265 379.488V378.56ZM80.5745 378.56H82.2865V379.488C82.2865 381.216 83.2945 383.056 85.6305 383.84L84.5905 385.504C81.8385 384.592 80.5745 382.128 80.5745 379.488V378.56ZM77.1985 377.616H85.1665V379.296H77.1985V377.616ZM100.925 376.592H103.037V391.456H100.925V376.592ZM102.557 382.192H105.181V383.952H102.557V382.192ZM92.0293 386.272H93.2773C95.7893 386.272 97.7413 386.192 99.9173 385.808L100.125 387.52C97.8853 387.92 95.8533 388.016 93.2773 388.016H92.0293V386.272ZM92.0133 377.856H98.8293V383.6H94.1413V386.928H92.0293V381.904H96.7173V379.552H92.0133V377.856ZM115.676 376.608H117.804V384.96H115.676V376.608ZM117.228 379.728H119.772V381.456H117.228V379.728ZM108.156 385.632H117.804V391.264H108.156V385.632ZM115.724 387.296H110.252V389.584H115.724V387.296ZM106.732 377.312H108.86V383.376H106.732V377.312ZM106.732 382.464H107.98C109.996 382.464 112.188 382.32 114.524 381.872L114.764 383.584C112.348 384.08 110.076 384.208 107.98 384.208H106.732V382.464ZM122.427 383.216H132.843V384.912H122.427V383.216ZM120.875 388.016H134.283V389.76H120.875V388.016ZM126.491 383.984H128.619V388.576H126.491V383.984ZM122.427 377.616H132.731V379.328H124.555V383.952H122.427V377.616Z" fill="#F7F8F9"/>
</g>
<g id="gyeongnam">
<g id="Vector 18">
<path d="M176.158 296.157L181.701 291.327C182.4 290.718 183.34 290.12 184.149 290.571C185.425 291.283 185.321 293.5 186.5 293.5C186.982 293.5 187.298 296.65 192 296.911C194.441 297.047 196.5 297.411 199 299.5C201.908 301.439 203.696 303.303 205.591 305.102L209 308C208 311.5 207.5 312 205 315L214.5 314C216.783 315.245 219.263 315.997 222 316C225.858 316.005 229.734 314.912 230 315C230.933 315.31 232.954 320.686 239.5 320.5C243.318 320.392 238.654 317.91 243 318C244.96 318.041 249.55 323.681 253 323C253.086 322.982 253.174 322.961 253.263 322.935C256.198 322.065 258.497 316.575 261.5 316C264.27 315.469 266.63 314.603 268.461 314.176C270.031 313.809 271.355 314.888 271.954 316.384L273.468 320.17C273.782 320.955 273.53 321.852 272.854 322.36C271.648 323.264 271.954 325.151 273.384 325.628L275.317 326.272C275.766 326.422 276.172 326.677 276.5 327.017L282.476 333.199C282.986 333.727 283.605 334.135 284.291 334.397L286.363 335.186C287.72 335.703 288.785 336.785 289.282 338.149L289.433 338.565C290.086 340.361 289.658 342.372 288.331 343.747L277.172 355.304C276.728 355.764 276.2 356.134 275.617 356.395L258.179 364.196C257.729 364.398 257.311 364.665 256.939 364.988L251.319 369.878C250.228 370.828 249.601 372.204 249.601 373.65V378.53C249.601 379.025 249.472 379.51 249.226 379.939L248.853 380.589C248.245 381.648 248.654 383.002 249.748 383.546C250.253 383.797 250.637 384.239 250.815 384.773L251.225 385.996C251.381 386.463 251.33 386.975 251.085 387.403L250.485 388.448C250.092 389.134 250.587 389.988 251.377 389.988C251.945 389.988 252.405 390.449 252.405 391.017V394.53C252.405 395.186 252.096 395.804 251.57 396.197C250.937 396.67 250.626 397.461 250.768 398.238L250.829 398.573C251.123 400.182 249.614 401.534 248.046 401.065L247.814 400.996C247.187 400.809 246.509 400.98 246.045 401.441L245.594 401.891C244.86 402.622 245.154 403.87 246.137 404.196C246.553 404.334 246.879 404.66 247.018 405.075L247.097 405.311C247.442 406.34 246.849 407.447 245.801 407.732L242.83 408.539C242.671 408.582 242.517 408.641 242.369 408.714C241.005 409.394 239.355 408.71 238.871 407.264L238.159 405.136C238.002 404.668 237.701 404.261 237.298 403.975C235.996 403.048 235.987 401.117 237.282 400.18L238.343 399.411C239.149 398.828 239.349 397.711 238.795 396.883C238.289 396.128 237.31 395.852 236.485 396.232L232.734 397.955C232.161 398.219 231.509 398.255 230.91 398.056L230.561 397.94C229.121 397.462 227.636 398.534 227.636 400.052C227.636 400.47 227.518 400.88 227.295 401.235L226.381 402.692C225.74 403.713 224.501 404.188 223.342 403.858C222.515 403.623 221.849 403.01 221.546 402.206L220.957 400.642C220.741 400.067 220.364 399.566 219.871 399.198L218.414 398.11C217.609 397.509 217.525 396.333 218.237 395.624C218.983 394.881 218.85 393.639 217.963 393.071L213.924 390.485C213.44 390.176 213.148 389.641 213.148 389.067C213.148 388.253 212.565 387.556 211.764 387.411L210.267 387.14C208.894 386.891 207.505 387.48 206.729 388.639L206.656 388.749C205.397 390.629 202.763 390.953 201.086 389.435L200.017 388.467C199.435 387.94 198.72 387.58 197.95 387.427L195.806 387C195.02 386.844 194.454 386.153 194.454 385.351C194.454 384.081 193.098 383.269 191.978 383.87L189.643 385.122C188.904 385.518 187.989 385.348 187.442 384.712L187.343 384.598C186.526 383.648 184.997 383.883 184.502 385.033C184.294 385.517 184.322 386.069 184.579 386.529L185.37 387.947C186.034 389.137 185.773 390.629 184.746 391.524L184.138 392.054C183.362 392.73 183.228 393.885 183.827 394.721C184.957 396.296 187.443 395.497 187.443 393.558V392.3C187.443 391.445 187.898 390.655 188.637 390.226L189.479 389.737C191.446 388.594 193.968 389.276 195.091 391.254L197.976 396.337C198.656 397.535 198.45 399.039 197.475 400.011C197.029 400.454 196.732 401.024 196.622 401.643L196.095 404.616C195.686 406.923 193.681 408.604 191.339 408.604H189.005C187.626 408.604 186.509 407.486 186.509 406.108V405.365C186.509 404.791 186.159 404.276 185.627 404.064C184.851 403.755 183.979 404.189 183.758 404.995L183.251 406.848C182.967 407.885 182.024 408.604 180.949 408.604C179.632 408.604 178.564 407.536 178.564 406.218V402.7C178.564 401.44 177.954 400.259 176.928 399.529C175.902 398.799 175.292 397.617 175.292 396.358V394.393C175.292 393.063 175.822 391.788 176.764 390.85L178.273 389.347C178.459 389.162 178.564 388.91 178.564 388.648C178.564 388.103 178.122 387.661 177.577 387.661H173.027C172.383 387.661 171.764 387.406 171.307 386.951C170.608 386.254 170.397 385.205 170.775 384.292L172.218 380.802C172.954 379.022 172.602 376.977 171.313 375.546L162.103 365.315C161.557 364.709 161.168 363.979 160.969 363.187L158.49 353.312C158.183 352.091 158.496 350.797 159.327 349.851L160.17 348.891C160.82 348.153 160.891 347.07 160.344 346.252C159.79 345.426 159.87 344.329 160.537 343.591L162.725 341.169C163.294 340.54 163.608 339.723 163.608 338.876V337.888C163.608 337.297 163.297 336.749 162.79 336.446L162.391 336.207C161.782 335.844 161.602 335.044 161.997 334.455C162.133 334.251 162.206 334.011 162.206 333.766V332.813C162.206 331.864 161.897 330.94 161.326 330.181L159.556 327.831C158.58 326.536 158.294 324.847 158.787 323.301L161.271 315.527L163.097 307.164C163.42 305.684 164.397 304.43 165.754 303.755L166.676 303.296C167.714 302.779 168.54 301.917 169.013 300.858L169.185 300.473C169.796 299.103 170.991 298.079 172.44 297.686L174.184 297.212C174.913 297.014 175.588 296.654 176.158 296.157Z" fill="#053C57"/>
<path d="M199 299.5C196.5 297.411 194.441 297.047 192 296.911C187.298 296.65 186.982 293.5 186.5 293.5C185.321 293.5 185.425 291.283 184.149 290.571C183.34 290.12 182.4 290.718 181.701 291.327L176.158 296.157C175.588 296.654 174.913 297.014 174.184 297.212L172.44 297.686C170.991 298.079 169.796 299.103 169.185 300.473L169.013 300.858C168.54 301.917 167.714 302.779 166.676 303.296L165.754 303.755C164.397 304.43 163.42 305.684 163.097 307.164L161.271 315.527L158.787 323.301C158.294 324.847 158.58 326.536 159.556 327.831L161.326 330.181C161.897 330.94 162.206 331.864 162.206 332.813V333.766C162.206 334.011 162.133 334.251 161.997 334.455V334.455C161.602 335.044 161.782 335.844 162.391 336.207L162.79 336.446C163.297 336.749 163.608 337.297 163.608 337.888V338.876C163.608 339.723 163.294 340.54 162.725 341.169L160.537 343.591C159.87 344.329 159.79 345.426 160.344 346.252V346.252C160.891 347.07 160.82 348.153 160.17 348.891L159.327 349.851C158.496 350.797 158.183 352.091 158.49 353.312L160.969 363.187C161.168 363.979 161.557 364.709 162.103 365.315L171.313 375.546C172.602 376.977 172.954 379.022 172.218 380.802L170.775 384.292C170.397 385.205 170.608 386.254 171.307 386.951V386.951C171.764 387.406 172.383 387.661 173.027 387.661H177.577C178.122 387.661 178.564 388.103 178.564 388.648V388.648C178.564 388.91 178.459 389.162 178.273 389.347L176.764 390.85C175.822 391.788 175.292 393.063 175.292 394.393V396.358C175.292 397.617 175.902 398.799 176.928 399.529V399.529C177.954 400.259 178.564 401.44 178.564 402.7V406.218C178.564 407.536 179.632 408.604 180.949 408.604V408.604C182.024 408.604 182.967 407.885 183.251 406.848L183.758 404.995C183.979 404.189 184.851 403.755 185.627 404.064V404.064C186.159 404.276 186.509 404.791 186.509 405.365V406.108C186.509 407.486 187.626 408.604 189.005 408.604H191.339C193.681 408.604 195.686 406.923 196.095 404.616L196.622 401.643C196.732 401.024 197.029 400.454 197.475 400.011V400.011C198.45 399.039 198.656 397.535 197.976 396.337L195.091 391.254C193.968 389.276 191.446 388.594 189.479 389.737L188.637 390.226C187.898 390.655 187.443 391.445 187.443 392.3V393.558C187.443 395.497 184.957 396.296 183.827 394.721V394.721C183.228 393.885 183.362 392.73 184.138 392.054L184.746 391.524C185.773 390.629 186.034 389.137 185.37 387.947L184.579 386.529C184.322 386.069 184.294 385.517 184.502 385.033V385.033C184.997 383.883 186.526 383.648 187.343 384.598L187.442 384.712C187.989 385.348 188.904 385.518 189.643 385.122L191.978 383.87C193.098 383.269 194.454 384.081 194.454 385.351V385.351C194.454 386.153 195.02 386.844 195.806 387L197.95 387.427C198.72 387.58 199.435 387.94 200.017 388.467L201.086 389.435C202.763 390.953 205.397 390.629 206.656 388.749L206.729 388.639C207.505 387.48 208.894 386.891 210.267 387.14L211.764 387.411C212.565 387.556 213.148 388.253 213.148 389.067V389.067C213.148 389.641 213.44 390.176 213.924 390.485L217.963 393.071C218.85 393.639 218.983 394.881 218.237 395.624V395.624C217.525 396.333 217.609 397.509 218.414 398.11L219.871 399.198C220.364 399.566 220.741 400.067 220.957 400.642L221.546 402.206C221.849 403.01 222.515 403.623 223.342 403.858V403.858C224.501 404.188 225.74 403.713 226.381 402.692L227.295 401.235C227.518 400.88 227.636 400.47 227.636 400.052V400.052C227.636 398.534 229.121 397.462 230.561 397.94L230.91 398.056C231.509 398.255 232.161 398.219 232.734 397.955L236.485 396.232C237.31 395.852 238.289 396.128 238.795 396.883V396.883C239.349 397.711 239.149 398.828 238.343 399.411L237.282 400.18C235.987 401.117 235.996 403.048 237.298 403.975V403.975C237.701 404.261 238.002 404.668 238.159 405.136L238.871 407.264C239.355 408.71 241.005 409.394 242.369 408.714V408.714C242.517 408.641 242.671 408.582 242.83 408.539L245.801 407.732C246.849 407.447 247.442 406.34 247.097 405.311L247.018 405.075C246.879 404.66 246.553 404.334 246.137 404.196V404.196C245.154 403.87 244.86 402.622 245.594 401.891L246.045 401.441C246.509 400.98 247.187 400.809 247.814 400.996L248.046 401.065C249.614 401.534 251.123 400.182 250.829 398.573L250.768 398.238C250.626 397.461 250.937 396.67 251.57 396.197V396.197C252.096 395.804 252.405 395.186 252.405 394.53V391.017C252.405 390.449 251.945 389.988 251.377 389.988V389.988C250.587 389.988 250.092 389.134 250.485 388.448L251.085 387.403C251.33 386.975 251.381 386.463 251.225 385.996L250.815 384.773C250.637 384.239 250.253 383.797 249.748 383.546V383.546C248.654 383.002 248.245 381.648 248.853 380.589L249.226 379.939C249.472 379.51 249.601 379.025 249.601 378.53V373.65C249.601 372.204 250.228 370.828 251.319 369.878L256.939 364.988C257.311 364.665 257.729 364.398 258.179 364.196L275.617 356.395C276.2 356.134 276.728 355.764 277.172 355.304L288.331 343.747C289.658 342.372 290.086 340.361 289.433 338.565L289.282 338.149C288.785 336.785 287.72 335.703 286.363 335.186L284.291 334.397C283.605 334.135 282.986 333.727 282.476 333.199L276.5 327.017C276.172 326.677 275.766 326.422 275.317 326.272L273.384 325.628C271.954 325.151 271.648 323.264 272.854 322.36V322.36C273.53 321.852 273.782 320.955 273.468 320.17L271.954 316.384C271.355 314.888 270.031 313.809 268.461 314.176C266.63 314.603 264.27 315.469 261.5 316M199 299.5C203.5 302.5 205.319 305.323 209 308M199 299.5L209 308M209 308C208 311.5 207.5 312 205 315M205 315C207.5 316 211.5 315 214.5 314M205 315L214.5 314M214.5 314C216.783 315.245 219.263 315.997 222 316C225.858 316.005 229.734 314.912 230 315C230.933 315.31 232.954 320.686 239.5 320.5C243.318 320.392 238.654 317.91 243 318C244.96 318.041 249.55 323.681 253 323M253 323C256.062 322.396 258.407 316.593 261.5 316M253 323C256.167 322.356 261.5 316 261.5 316" stroke="#F7F8F9" stroke-width="1.5"/>
</g>
<rect id="Rectangle 67_4" x="178" y="333" width="74" height="28" rx="14" fill="#229FBD"/>
<path id="&#234;&#178;&#189;&#236;&#131;&#129;&#235;&#130;&#168;&#235;&#143;&#132;" d="M193.839 341.944H197.311V343.64H193.839V341.944ZM193.727 345.016H197.199V346.712H193.727V345.016ZM196.975 339.608H199.103V348.136H196.975V339.608ZM192.143 340.616H194.415C194.415 344.648 192.143 347.24 187.647 348.472L186.815 346.792C190.575 345.816 192.143 343.96 192.143 341.64V340.616ZM187.631 340.616H193.631V342.312H187.631V340.616ZM194.191 348.328C197.199 348.328 199.199 349.48 199.199 351.336C199.199 353.192 197.199 354.36 194.191 354.36C191.183 354.36 189.183 353.192 189.183 351.336C189.183 349.48 191.183 348.328 194.191 348.328ZM194.191 349.96C192.383 349.96 191.295 350.424 191.295 351.336C191.295 352.248 192.383 352.696 194.191 352.696C196.015 352.696 197.103 352.248 197.103 351.336C197.103 350.424 196.015 349.96 194.191 349.96ZM204.669 340.408H206.413V341.72C206.413 344.664 205.133 347.256 202.317 348.232L201.181 346.552C203.661 345.72 204.669 343.736 204.669 341.72V340.408ZM205.101 340.408H206.829V341.928C206.829 343.704 207.821 345.432 210.141 346.152L209.037 347.8C206.365 346.904 205.101 344.6 205.101 341.928V340.408ZM210.957 339.608H213.085V348.36H210.957V339.608ZM212.493 343.032H215.053V344.792H212.493V343.032ZM208.253 348.696C211.325 348.696 213.261 349.768 213.261 351.56C213.261 353.368 211.325 354.424 208.253 354.424C205.165 354.424 203.229 353.368 203.229 351.56C203.229 349.768 205.165 348.696 208.253 348.696ZM208.253 350.344C206.365 350.344 205.341 350.744 205.341 351.56C205.341 352.392 206.365 352.776 208.253 352.776C210.141 352.776 211.149 352.392 211.149 351.56C211.149 350.744 210.141 350.344 208.253 350.344ZM225.676 339.608H227.804V347.96H225.676V339.608ZM227.228 342.728H229.772V344.456H227.228V342.728ZM218.156 348.632H227.804V354.264H218.156V348.632ZM225.724 350.296H220.252V352.584H225.724V350.296ZM216.732 340.312H218.86V346.376H216.732V340.312ZM216.732 345.464H217.98C219.996 345.464 222.188 345.32 224.524 344.872L224.764 346.584C222.348 347.08 220.076 347.208 217.98 347.208H216.732V345.464ZM232.427 346.216H242.843V347.912H232.427V346.216ZM230.875 351.016H244.283V352.76H230.875V351.016ZM236.491 346.984H238.619V351.576H236.491V346.984ZM232.427 340.616H242.731V342.328H234.555V346.952H232.427V340.616Z" fill="#F7F8F9"/>
</g>
<g id="gwangju">
<path id="Vector 16" d="M103.353 357.83C104.7 359.645 106.448 361.806 107.934 363.594C109.626 365.628 109.669 368.75 107.964 370.774L107.81 370.957C107.43 371.408 106.973 371.788 106.461 372.079L102.912 374.101C102.658 374.246 102.391 374.369 102.114 374.467L100.083 375.19C99.251 375.486 98.3286 375.383 97.582 374.911L96.8321 374.436C95.654 373.691 94.0885 374.235 93.6267 375.55C93.3217 376.419 92.5015 377 91.5809 377H91.4887C90.7399 377 90.038 376.635 89.6077 376.022L86.8455 372.088C86.0492 370.954 84.7886 370.235 83.4072 370.125L82.705 370.07C81.0662 369.94 79.7086 368.747 79.3697 367.138C79.1362 366.03 79.4224 364.875 80.1468 364.004L85.3399 357.758C85.7954 357.21 86.4709 356.894 87.1832 356.894H87.4617C88.3128 356.894 89.071 357.431 89.3529 358.234C89.6349 359.037 90.3931 359.574 91.2442 359.574H92.6176C93.5483 359.574 94.449 359.245 95.1602 358.645L97.1313 356.981C97.8822 356.348 98.8331 356 99.8157 356C101.216 356 102.518 356.706 103.353 357.83Z" fill="#053C57" stroke="#F7F8F9" stroke-width="1.5"/>
<rect id="Rectangle 67_5" x="86" y="338" width="74" height="28" rx="14" fill="#229FBD"/>
<path id="&#234;&#180;&#145;&#236;&#163;&#188;" d="M109.577 344.408H115.913V346.104H109.577V344.408ZM111.401 347.72H113.513V351.384H111.401V347.72ZM115.081 344.408H117.177V345.368C117.177 346.36 117.177 347.656 116.841 349.272L114.777 349.112C115.081 347.528 115.081 346.36 115.081 345.368V344.408ZM118.617 343.608H120.761V352.632H118.617V343.608ZM119.913 347.24H122.537V349H119.913V347.24ZM108.921 352.04L108.713 350.344C111.369 350.344 114.857 350.312 117.817 349.944L117.945 351.448C114.905 351.976 111.545 352.04 108.921 352.04ZM115.753 352.808C118.905 352.808 120.889 353.864 120.889 355.592C120.889 357.368 118.905 358.408 115.753 358.408C112.601 358.408 110.633 357.368 110.633 355.592C110.633 353.864 112.601 352.808 115.753 352.808ZM115.753 354.44C113.849 354.44 112.793 354.824 112.793 355.592C112.793 356.392 113.849 356.76 115.753 356.76C117.673 356.76 118.697 356.392 118.697 355.592C118.697 354.824 117.673 354.44 115.753 354.44ZM129.128 345.256H130.968V345.688C130.968 348.296 128.84 350.424 125.08 350.936L124.296 349.272C127.56 348.872 129.128 347.208 129.128 345.688V345.256ZM129.736 345.256H131.576V345.688C131.576 347.208 133.144 348.872 136.408 349.272L135.64 350.936C131.864 350.424 129.736 348.296 129.736 345.688V345.256ZM129.24 353H131.352V358.44H129.24V353ZM123.656 351.784H137.048V353.48H123.656V351.784ZM124.84 344.36H135.832V346.04H124.84V344.36Z" fill="#F7F8F9"/>
</g>
<g id="gyeongbuk">
<path id="Vector 17" d="M299.091 168.254L298.728 167.345C297.586 164.479 293.683 164.104 292.015 166.698C291.677 167.225 291.214 167.659 290.667 167.963L287.983 169.454C287.345 169.808 286.839 170.361 286.543 171.027C285.723 172.873 283.473 173.584 281.741 172.545L280.331 171.699C280.11 171.566 279.88 171.452 279.641 171.357L276.501 170.1C275.525 169.71 274.451 169.637 273.431 169.892L270.267 170.683C269.436 170.891 268.566 170.882 267.739 170.656L265.927 170.162C264.4 169.745 262.766 170.076 261.522 171.054L259.241 172.846C257.723 174.039 255.527 173.786 254.32 172.279L254.237 172.176C252.847 170.441 250.196 170.475 248.852 172.246L248.2 173.103C247.115 174.531 244.952 174.482 243.933 173.006L243.214 171.966C242.291 170.629 240.242 170.901 239.7 172.433C239.57 172.803 239.332 173.126 239.018 173.361L235.5 176L228.5 182L224.374 185.301C223.091 186.327 222.394 187.918 222.509 189.557L222.753 193.003C222.901 195.102 221.719 197.069 219.796 197.924L217.138 199.105C215.247 199.946 213.034 199.535 211.572 198.072L211.146 197.646C209.827 196.328 207.884 195.852 206.105 196.414L193.143 200.508C191.507 201.024 190.739 202.897 191.542 204.413C192.666 206.536 190.716 208.977 188.397 208.351L187.153 208.014C185.98 207.697 184.729 208.049 183.892 208.929L181.664 211.274C180.965 212.01 180.802 213.105 181.256 214.012C182.057 215.615 180.892 217.5 179.1 217.5H177.27C176.299 217.5 175.371 217.898 174.703 218.602L174.306 219.02C172.471 220.952 172.523 223.997 174.423 225.865L176.514 227.922C177.817 229.203 178.317 231.093 177.819 232.852L176.887 236.135C176.634 237.027 176.634 237.973 176.887 238.865L178.002 242.795C178.399 244.195 178.167 245.698 177.366 246.913L175.906 249.127C175.378 249.926 175.486 250.986 176.163 251.663C176.384 251.885 176.654 252.052 176.951 252.151L186.833 255.444C189.228 256.243 190.268 259.053 188.969 261.218C188.66 261.733 188.473 262.311 188.421 262.909L188.104 266.578C188.024 267.507 187.685 268.396 187.126 269.143L183.077 274.554C182.614 275.173 181.99 275.652 181.272 275.94C179.675 276.58 178.628 278.128 178.628 279.849V280.185C178.628 281.304 179.155 282.359 180.051 283.031C181.401 284.044 181.854 285.866 181.135 287.393L180.211 289.357C179.475 290.923 180.617 292.723 182.347 292.723H183.538C184.184 292.723 184.708 293.246 184.708 293.892C184.708 294.538 185.231 295.062 185.877 295.062H186.779C187.523 295.062 188.209 295.46 188.578 296.106L188.917 296.699C189.495 297.711 190.572 298.336 191.738 298.336H193.725C194.852 298.336 195.945 298.717 196.829 299.416L205.2 306.045C206.141 306.79 206.689 307.924 206.689 309.124V309.664C206.689 310.756 206.097 311.763 205.142 312.294L204.575 312.609C203.422 313.25 203.015 314.709 203.669 315.854C204.091 316.592 204.875 317.048 205.725 317.048H208.937C209.614 317.048 210.284 316.91 210.907 316.643L212.307 316.043C212.921 315.78 213.581 315.644 214.248 315.644H215.472C216.921 315.644 218.199 316.595 218.615 317.983L218.94 319.066C219.164 319.812 219.85 320.322 220.628 320.322C220.992 320.322 221.347 320.209 221.645 319.999L225.697 317.138C227.686 315.734 230.396 315.966 232.117 317.688L236.217 321.789C236.776 322.347 237.533 322.661 238.322 322.661H240.129C240.775 322.661 241.298 322.137 241.298 321.492C241.298 320.846 241.822 320.322 242.468 320.322H244.594C245.179 320.322 245.74 320.554 246.154 320.968C246.345 321.16 246.57 321.314 246.817 321.424L252.733 324.054C253.844 324.548 255.132 323.92 255.426 322.74C255.644 321.869 256.427 321.258 257.325 321.258H257.839C258.872 321.258 259.809 320.649 260.229 319.704L260.832 318.348C261.203 317.512 261.877 316.847 262.718 316.487C263.929 315.967 265.343 316.158 266.384 316.967C267.805 318.073 269.848 317.963 271.121 316.69C271.79 316.02 272.698 315.644 273.645 315.644H302.969C304.488 315.644 305.925 314.954 306.874 313.767L310.137 309.688C310.692 308.993 311.052 308.164 311.18 307.284L314.456 284.755C314.63 283.558 315.232 282.466 316.15 281.679L316.254 281.589C317.362 280.639 318 279.252 318 277.793V274.186C318 273.21 317.477 272.309 316.63 271.825C315.519 271.19 314.115 271.415 313.259 272.367L308.654 277.485C307.379 278.902 305.176 278.96 303.828 277.612C302.413 276.197 302.558 273.862 304.137 272.633L304.689 272.204C305.133 271.859 305.456 271.381 305.61 270.839L305.844 270.02C306.103 269.113 305.602 268.162 304.707 267.864C303.987 267.624 303.502 266.95 303.502 266.192V262.671C303.502 261.958 302.924 261.381 302.212 261.381C301.279 261.381 300.654 260.42 301.033 259.568L301.872 257.681C302.021 257.345 302.098 256.981 302.098 256.613V245.483C302.098 244.272 302.538 243.103 303.335 242.191L304.251 241.144C304.978 240.313 305.41 239.265 305.478 238.164L306.211 226.445C306.274 225.434 306.029 224.429 305.508 223.561L304.214 221.403C303.748 220.626 303.502 219.737 303.502 218.831V217.005C303.502 215.486 304.192 214.05 305.378 213.101L306.413 212.273C307.529 211.38 308.178 210.028 308.178 208.599V208.402C308.178 207.28 307.733 206.204 306.939 205.411C305.958 204.429 305.52 203.028 305.769 201.662L305.854 201.195C306.138 199.631 305.637 198.027 304.513 196.902C303.853 196.242 303.397 195.405 303.202 194.492L302.209 189.86C302.136 189.515 302.098 189.164 302.098 188.812V174.796C302.098 173.638 301.584 172.541 300.695 171.8L300.312 171.48C299.666 170.942 299.292 170.144 299.292 169.303C299.292 168.944 299.224 168.588 299.091 168.254Z" fill="#053C57" stroke="#F7F8F9" stroke-width="1.5"/>
<rect id="Rectangle 67_6" x="206" y="230" width="74" height="28" rx="14" fill="#229FBD"/>
<path id="&#234;&#178;&#189;&#236;&#131;&#129;&#235;&#182;&#129;&#235;&#143;&#132;" d="M221.839 238.944H225.311V240.64H221.839V238.944ZM221.727 242.016H225.199V243.712H221.727V242.016ZM224.975 236.608H227.103V245.136H224.975V236.608ZM220.143 237.616H222.415C222.415 241.648 220.143 244.24 215.647 245.472L214.815 243.792C218.575 242.816 220.143 240.96 220.143 238.64V237.616ZM215.631 237.616H221.631V239.312H215.631V237.616ZM222.191 245.328C225.199 245.328 227.199 246.48 227.199 248.336C227.199 250.192 225.199 251.36 222.191 251.36C219.183 251.36 217.183 250.192 217.183 248.336C217.183 246.48 219.183 245.328 222.191 245.328ZM222.191 246.96C220.383 246.96 219.295 247.424 219.295 248.336C219.295 249.248 220.383 249.696 222.191 249.696C224.015 249.696 225.103 249.248 225.103 248.336C225.103 247.424 224.015 246.96 222.191 246.96ZM232.669 237.408H234.413V238.72C234.413 241.664 233.133 244.256 230.317 245.232L229.181 243.552C231.661 242.72 232.669 240.736 232.669 238.72V237.408ZM233.101 237.408H234.829V238.928C234.829 240.704 235.821 242.432 238.141 243.152L237.037 244.8C234.365 243.904 233.101 241.6 233.101 238.928V237.408ZM238.957 236.608H241.085V245.36H238.957V236.608ZM240.493 240.032H243.053V241.792H240.493V240.032ZM236.253 245.696C239.325 245.696 241.261 246.768 241.261 248.56C241.261 250.368 239.325 251.424 236.253 251.424C233.165 251.424 231.229 250.368 231.229 248.56C231.229 246.768 233.165 245.696 236.253 245.696ZM236.253 247.344C234.365 247.344 233.341 247.744 233.341 248.56C233.341 249.392 234.365 249.776 236.253 249.776C238.141 249.776 239.149 249.392 239.149 248.56C239.149 247.744 238.141 247.344 236.253 247.344ZM249.756 244.944H251.868V247.184H249.756V244.944ZM244.14 243.664H257.532V245.344H244.14V243.664ZM245.628 246.592H255.916V251.424H253.788V248.272H245.628V246.592ZM245.852 236.976H247.948V238.288H253.724V236.976H255.836V242.704H245.852V236.976ZM247.948 239.872V241.04H253.724V239.872H247.948ZM260.427 243.216H270.843V244.912H260.427V243.216ZM258.875 248.016H272.283V249.76H258.875V248.016ZM264.491 243.984H266.619V248.576H264.491V243.984ZM260.427 237.616H270.731V239.328H262.555V243.952H260.427V237.616Z" fill="#F7F8F9"/>
</g>
<g id="busan">
<path id="Vector 15" d="M287.445 342.309L287.49 342.239C288.325 340.937 289.962 340.404 291.403 340.966L292.7 341.472C295.666 342.628 296.783 346.244 294.986 348.872L294.444 349.664C293.964 350.365 293.671 351.177 293.593 352.023L293.282 355.353C293.25 355.695 293.183 356.032 293.082 356.36L292.148 359.396C291.918 360.144 291.515 360.827 290.973 361.391L285.015 367.586C284.751 367.861 284.456 368.105 284.136 368.313L282.298 369.507C281.932 369.745 281.525 369.91 281.097 369.993L280.664 370.077C279.842 370.238 278.993 369.984 278.393 369.4C277.35 368.383 275.67 368.443 274.702 369.531L270.841 373.875C270.461 374.302 269.951 374.593 269.39 374.702C268.449 374.886 267.482 374.538 266.874 373.796L266.667 373.545C266.202 372.977 265.553 372.59 264.832 372.449L259.642 371.438C259.064 371.325 258.469 371.332 257.894 371.46L250.33 373.133C248.439 373.551 247.156 371.261 248.5 369.867L255.543 364.357C255.847 364.12 256.177 363.918 256.526 363.757L263.923 360.338C264.313 360.158 264.725 360.029 265.148 359.954L268.261 359.402C269.249 359.227 270.161 358.759 270.879 358.059L280.952 348.24C281.459 347.745 281.745 347.067 281.745 346.359C281.745 344.909 282.92 343.733 284.371 343.733H284.84C285.894 343.733 286.876 343.196 287.445 342.309Z" fill="#053C57" stroke="#F7F8F9" stroke-width="1.5"/>
<rect id="Rectangle 67_7" x="273.5" y="357" width="74" height="28" rx="14" fill="#229FBD"/>
<path id="&#235;&#182;&#128;&#236;&#130;&#176;" d="M296.421 372.136H309.845V373.816H296.421V372.136ZM302.021 372.984H304.133V378.424H302.021V372.984ZM297.957 364.168H300.069V365.848H306.149V364.168H308.261V370.728H297.957V364.168ZM300.069 367.512V369.032H306.149V367.512H300.069ZM314.468 364.52H316.212V366.12C316.212 369.064 314.884 371.592 312.052 372.568L310.916 370.904C313.428 370.104 314.468 368.12 314.468 366.12V364.52ZM314.884 364.52H316.612V366.136C316.612 367.992 317.62 369.848 320.004 370.632L318.916 372.28C316.164 371.368 314.884 368.92 314.884 366.136V364.52ZM320.676 363.608H322.804V374.44H320.676V363.608ZM322.196 367.896H324.772V369.656H322.196V367.896ZM313.252 376.472H323.332V378.168H313.252V376.472ZM313.252 373.416H315.396V377.368H313.252V373.416Z" fill="#F7F8F9"/>
</g>
<g id="ulsan">
<path id="Vector 14" d="M300.589 343.746L298.881 345.804C298.282 346.527 297.303 346.812 296.41 346.525C295.551 346.249 294.934 345.496 294.83 344.6L294.787 344.227C294.631 342.868 293.54 341.807 292.178 341.688L291.528 341.631C290.118 341.507 288.905 340.587 288.406 339.263L288.249 338.848C287.665 337.298 286.258 336.21 284.612 336.034L284.513 336.023C283.508 335.916 282.568 335.476 281.841 334.775L275.613 328.77C275.064 328.24 274.4 327.843 273.673 327.609L269.922 326.404C269.373 326.227 269 325.716 269 325.139C269 324.601 269.324 324.116 269.821 323.911L270.967 323.437C271.854 323.07 272.529 322.322 272.802 321.401L273.103 320.386C273.248 319.896 273.154 319.365 272.85 318.954L272.641 318.673C271.932 317.715 272.615 316.357 273.808 316.357C274.609 316.357 275.259 315.707 275.259 314.906V314.117C275.259 313.475 275.535 312.864 276.016 312.438L279.619 309.254C280.533 308.446 281.71 308 282.93 308H287.7C288.692 308 289.659 308.301 290.475 308.863L291.275 309.414C292.1 309.982 292.593 310.919 292.593 311.921V313.043C292.593 314.104 293.453 314.964 294.514 314.964C295.122 314.964 295.695 314.676 296.058 314.187L296.726 313.285C297.457 312.297 298.614 311.714 299.843 311.714H300.49C301.279 311.714 302.024 312.079 302.509 312.702C302.94 313.257 303.582 313.61 304.282 313.677L305.01 313.747C306.552 313.896 307.568 315.425 307.108 316.904L306.818 317.834C306.663 318.333 306.86 318.874 307.3 319.157C307.718 319.426 307.919 319.931 307.799 320.414C306.793 324.469 305.111 331.331 305.111 331.679C305.111 331.949 303.919 333.55 302.837 334.938C302.135 335.839 301.741 336.944 301.741 338.087V340.553C301.741 341.719 301.333 342.848 300.589 343.746Z" fill="#053C57" stroke="#F7F8F9" stroke-width="1.5"/>
<rect id="Rectangle 67_8" x="262" y="290" width="74" height="28" rx="14" fill="#229FBD"/>
<path id="&#236;&#154;&#184;&#236;&#130;&#176;" d="M290.537 302.664H292.665V304.728H290.537V302.664ZM291.625 295.752C295.001 295.752 296.985 296.632 296.985 298.264C296.985 299.896 295.001 300.792 291.625 300.792C288.233 300.792 286.265 299.896 286.265 298.264C286.265 296.632 288.233 295.752 291.625 295.752ZM291.625 297.304C289.481 297.304 288.473 297.608 288.473 298.264C288.473 298.952 289.481 299.24 291.625 299.24C293.769 299.24 294.777 298.952 294.777 298.264C294.777 297.608 293.769 297.304 291.625 297.304ZM284.921 301.432H298.313V303.112H284.921V301.432ZM286.457 304.072H296.697V307.88H288.569V309.192H286.473V306.408H294.601V305.656H286.457V304.072ZM286.473 308.728H297.081V310.328H286.473V308.728ZM302.968 296.52H304.712V298.12C304.712 301.064 303.384 303.592 300.552 304.568L299.416 302.904C301.928 302.104 302.968 300.12 302.968 298.12V296.52ZM303.384 296.52H305.112V298.136C305.112 299.992 306.12 301.848 308.504 302.632L307.416 304.28C304.664 303.368 303.384 300.92 303.384 298.136V296.52ZM309.176 295.608H311.304V306.44H309.176V295.608ZM310.696 299.896H313.272V301.656H310.696V299.896ZM301.752 308.472H311.832V310.168H301.752V308.472ZM301.752 305.416H303.896V309.368H301.752V305.416Z" fill="#F7F8F9"/>
</g>
<g id="daegu">
<path id="Vector 13" d="M227.267 288.24V291.914C227.267 292.368 227.743 292.664 228.151 292.463C228.184 292.446 228.215 292.427 228.244 292.406L229.116 291.76C229.741 291.297 230.25 290.695 230.601 290.001L230.747 289.713C230.915 289.381 231.12 289.069 231.358 288.782L234.498 284.993C234.955 284.441 235.569 284.042 236.259 283.847L237.122 283.604C237.94 283.373 238.545 282.683 238.667 281.842C238.82 280.785 239.726 280 240.795 280H241.832C242.38 280 242.92 280.135 243.404 280.392L246.576 282.078C247.886 282.774 248.659 284.181 248.544 285.66L248.418 287.265C248.334 288.355 249.121 289.319 250.206 289.453C251.231 289.579 252 290.449 252 291.482V291.551C252 292.119 251.773 292.663 251.369 293.062L251.257 293.172C250.833 293.59 250.572 294.146 250.522 294.74L250.284 297.567C250.199 298.574 249.356 299.348 248.345 299.348C247.271 299.348 246.4 300.219 246.4 301.294V304.006C246.4 305.417 245.71 306.739 244.552 307.546L240.879 310.106C239.802 310.856 238.317 310.165 238.197 308.859C238.096 307.764 237.003 307.047 235.959 307.391L234.081 308.009C233.078 308.339 232.4 309.276 232.4 310.332V311.286C232.4 311.85 232.015 312.342 231.467 312.478C230.919 312.613 230.533 313.105 230.533 313.669V314.551V315.486C230.533 317.088 228.991 318.24 227.455 317.785C226.499 317.502 225.468 317.84 224.865 318.633L223.733 320.124C223.323 320.663 222.649 320.931 221.981 320.821C221.02 320.663 220.352 319.78 220.461 318.813L220.595 317.622C220.684 316.833 220.465 316.041 219.985 315.408L218.021 312.823C217.963 312.747 217.915 312.663 217.879 312.574C217.532 311.718 218.346 310.847 219.224 311.136L221.663 311.939C222.882 312.34 224.169 311.544 224.352 310.273C224.426 309.765 224.307 309.247 224.02 308.822L219.319 301.861C218.446 300.568 218.226 298.941 218.725 297.463L220.024 293.617C220.185 293.141 220.416 292.692 220.711 292.285L222.112 290.349C222.435 289.902 222.83 289.512 223.281 289.194L225.749 287.454C225.827 287.399 225.913 287.356 226.003 287.326C226.626 287.121 227.267 287.585 227.267 288.24Z" fill="#053C57" stroke="#F7F8F9" stroke-width="1.5"/>
<rect id="Rectangle 67_9" x="240" y="275" width="74" height="28" rx="14" fill="#229FBD"/>
<path id="&#235;&#140;&#128;&#234;&#181;&#172;" d="M273.625 281.608H275.641V296.424H273.625V281.608ZM271.641 287.304H274.105V289.016H271.641V287.304ZM270.313 281.864H272.281V295.72H270.313V281.864ZM263.337 291.336H264.377C266.201 291.336 267.721 291.272 269.481 290.952L269.641 292.68C267.849 293.032 266.281 293.08 264.377 293.08H263.337V291.336ZM263.337 283.32H268.809V285.032H265.449V292.168H263.337V283.32ZM279.176 282.472H288.472V284.152H279.176V282.472ZM277.656 288.776H291.048V290.488H277.656V288.776ZM283.208 289.976H285.352V296.44H283.208V289.976ZM287.384 282.472H289.48V283.784C289.48 285.384 289.48 287.176 288.904 289.8L286.808 289.56C287.384 287.08 287.384 285.32 287.384 283.784V282.472Z" fill="#F7F8F9"/>
</g>
<g id="chungnam">
<path id="Vector 11" d="M94.7019 192.602L96.1418 193.257C97.6162 193.929 99.3526 193.614 100.497 192.467C100.789 192.175 101.125 191.931 101.494 191.745L108.46 188.226C108.757 188.076 109.068 187.956 109.389 187.867L116.472 185.92C117.466 185.647 118.521 185.687 119.491 186.037L129.129 189.506C130.024 189.829 130.809 190.4 131.391 191.153L139.117 201.152C140.518 202.964 140.508 205.497 139.092 207.298L134.54 213.092C134.326 213.363 134.142 213.656 133.989 213.966L133.032 215.9C132.11 217.766 132.44 220.007 133.859 221.528L137.554 225.487C138.173 226.15 138.6 226.969 138.789 227.856L139.624 231.77C140.041 233.729 139.25 235.748 137.612 236.901L133.979 239.458C133.023 240.131 132.334 241.118 132.03 242.247L129.838 250.389C129.328 252.283 129.973 254.301 131.487 255.548L134.636 258.141C136.337 259.542 138.754 259.664 140.588 258.442L144.351 255.932C146.439 254.541 149.235 254.912 150.888 256.8L154.612 261.057C154.87 261.351 155.092 261.675 155.274 262.021L159.425 269.907C159.803 270.625 160 271.424 160 272.235V276.214C160 277.049 159.791 277.871 159.391 278.605L158.274 280.658C157.604 281.887 156.316 282.652 154.916 282.652H152.268C151.619 282.652 151.094 283.178 151.094 283.826C151.094 284.474 150.568 285 149.92 285H146.69C145.891 285 145.107 284.782 144.422 284.371L144.297 284.296C143.53 283.835 142.652 283.591 141.758 283.591H141.001C140.545 283.591 140.092 283.518 139.659 283.373C138.311 282.923 137.278 281.827 136.909 280.454L135.773 276.226C134.963 273.214 131.625 271.67 128.806 273.004L119.84 277.245C118.287 277.98 116.464 277.865 115.015 276.941L113.59 276.033C112.716 275.476 112.188 274.512 112.188 273.476V272.904C112.188 271.545 111.086 270.443 109.727 270.443C109.194 270.443 108.676 270.27 108.25 269.95L107.471 269.365C106.039 268.29 104.141 268.062 102.495 268.768L101.037 269.395C99.5093 270.05 98.4076 271.422 98.0971 273.055L97.4919 276.238C97.0433 278.597 94.9812 280.304 92.5799 280.304H91.8537C90.5099 280.304 89.2649 281.01 88.5744 282.163C87.5987 283.792 85.5752 284.457 83.8229 283.726L83.126 283.435C81.929 282.936 80.992 281.963 80.5373 280.748L78.8448 276.227C78.5768 275.511 78.1483 274.866 77.5922 274.342L72.0388 269.106C71.0368 268.162 70.4688 266.845 70.4688 265.468V255.68C70.4688 254.898 70.2248 254.136 69.771 253.5L69.4486 253.048C68.6653 251.949 68.7057 250.464 69.5477 249.41L69.6034 249.34C70.7732 247.875 70.2964 245.705 68.6203 244.865C67.7269 244.418 67.121 243.548 67.0108 242.555L65.1648 225.912C64.9664 224.123 63.8217 222.579 62.1678 221.869L60.2716 221.054C59.0604 220.534 57.6567 220.773 56.6859 221.665C54.843 223.357 51.8629 222.504 51.1944 220.093L50.5347 217.714C50.3902 217.193 50.0855 216.731 49.6637 216.393L49.2204 216.038C48.4974 215.458 48.2973 214.442 48.7467 213.632C49.4495 212.365 48.5331 210.809 47.084 210.809H46.9566C46.4064 210.809 45.8812 210.579 45.5072 210.176L42.631 207.073C41.1617 205.488 41.2287 203.004 42.7556 201.474C43.1002 201.129 43.3798 200.717 43.5716 200.269L45.3371 196.142C45.6793 195.343 46.7512 195.197 47.2941 195.877C47.6733 196.352 48.3564 196.45 48.8539 196.101L49.6689 195.53C50.8796 194.681 52.5361 195.601 52.4542 197.078C52.363 198.723 54.3709 199.59 55.5063 198.396L59.2093 194.501C60.5428 193.099 60.5889 190.911 59.3158 189.454L55.2529 184.803C55.0898 184.616 55 184.376 55 184.129C55 183.563 55.4586 183.104 56.0243 183.104H63.3166C64.8705 183.104 66.336 182.382 67.2823 181.15L67.4271 180.961C69.1075 178.773 72.243 178.359 74.4333 180.037L77.3995 182.309C78.0801 182.831 78.8832 183.168 79.7318 183.29L86.1089 184.202C87.4934 184.4 88.7316 185.169 89.523 186.322L92.6514 190.881C93.1657 191.63 93.8746 192.225 94.7019 192.602Z" fill="#053C57" stroke="#F7F8F9" stroke-width="1.5"/>
<rect id="Rectangle 67_10" x="48" y="217" width="74" height="28" rx="14" fill="#229FBD"/>
<path id="&#236;&#182;&#169;&#236;&#178;&#173;&#235;&#130;&#168;&#235;&#143;&#132;" d="M60.3345 231.816H62.4465V233.944H60.3345V231.816ZM54.7025 230.728H68.0945V232.392H54.7025V230.728ZM60.3345 223.656H62.4465V225.704H60.3345V223.656ZM60.2065 225.864H62.0785V226.152C62.0785 228.392 59.9345 229.976 55.8865 230.248L55.2625 228.648C58.8305 228.44 60.2065 227.288 60.2065 226.152V225.864ZM60.7025 225.864H62.5745V226.152C62.5745 227.288 63.9505 228.44 67.5185 228.648L66.8945 230.248C62.8465 229.976 60.7025 228.392 60.7025 226.152V225.864ZM55.9825 224.936H66.8145V226.584H55.9825V224.936ZM61.3745 233.4C64.6065 233.4 66.5105 234.296 66.5105 235.912C66.5105 237.544 64.6065 238.424 61.3745 238.424C58.1425 238.424 56.2225 237.544 56.2225 235.912C56.2225 234.296 58.1425 233.4 61.3745 233.4ZM61.3745 234.968C59.3585 234.968 58.3825 235.24 58.3825 235.912C58.3825 236.568 59.3585 236.856 61.3745 236.856C63.3745 236.856 64.3665 236.568 64.3665 235.912C64.3665 235.24 63.3745 234.968 61.3745 234.968ZM72.7493 226.2H74.4613V226.744C74.4613 229.32 73.1493 231.64 70.3173 232.456L69.3253 230.792C71.7093 230.12 72.7493 228.424 72.7493 226.744V226.2ZM73.1493 226.2H74.8773V226.744C74.8773 228.264 75.9333 229.816 78.3173 230.44L77.3573 232.088C74.5093 231.336 73.1493 229.176 73.1493 226.744V226.2ZM69.8372 225.144H77.7893V226.808H69.8372V225.144ZM72.7493 223.56H74.8773V225.8H72.7493V223.56ZM77.3733 227.56H80.2053V229.272H77.3733V227.56ZM79.6933 223.608H81.8213V232.552H79.6933V223.608ZM76.7973 232.808C79.9333 232.808 81.8693 233.832 81.8693 235.608C81.8693 237.384 79.9333 238.424 76.7973 238.424C73.6613 238.424 71.7253 237.384 71.7253 235.608C71.7253 233.832 73.6613 232.808 76.7973 232.808ZM76.7973 234.424C74.8613 234.424 73.8533 234.808 73.8533 235.608C73.8533 236.408 74.8613 236.808 76.7973 236.808C78.7493 236.808 79.7573 236.408 79.7573 235.608C79.7573 234.808 78.7493 234.424 76.7973 234.424ZM93.676 223.608H95.804V231.96H93.676V223.608ZM95.228 226.728H97.772V228.456H95.228V226.728ZM86.156 232.632H95.804V238.264H86.156V232.632ZM93.724 234.296H88.252V236.584H93.724V234.296ZM84.732 224.312H86.86V230.376H84.732V224.312ZM84.732 229.464H85.98C87.996 229.464 90.188 229.32 92.524 228.872L92.764 230.584C90.348 231.08 88.076 231.208 85.98 231.208H84.732V229.464ZM100.427 230.216H110.843V231.912H100.427V230.216ZM98.8748 235.016H112.283V236.76H98.8748V235.016ZM104.491 230.984H106.619V235.576H104.491V230.984ZM100.427 224.616H110.731V226.328H102.555V230.952H100.427V224.616Z" fill="#F7F8F9"/>
</g>
<g id="chungbuk">
<path id="Vector 10" d="M132.244 193.191L130.822 191.409C129.696 189.998 129.419 188.09 130.095 186.416L130.296 185.919C130.67 184.994 131.312 184.202 132.139 183.645L167.537 159.812C167.845 159.605 168.174 159.432 168.52 159.298L184.812 152.974C185.612 152.663 186.479 152.564 187.329 152.686L206.348 155.407C206.781 155.469 207.203 155.587 207.605 155.759L237.401 168.492C240.433 169.788 241.042 173.822 238.528 175.955C238.128 176.295 237.67 176.561 237.177 176.741L234.447 177.736C233.369 178.129 232.459 178.881 231.87 179.866L230.427 182.277C230.128 182.776 229.745 183.219 229.294 183.586L225.028 187.062C223.49 188.315 222.838 190.36 223.368 192.273L223.567 192.99C224.277 195.553 222.856 198.224 220.333 199.067L216.222 200.441C214.635 200.971 212.884 200.52 211.751 199.289L210.665 198.109C209.322 196.65 206.961 196.862 205.899 198.536C205.202 199.634 203.88 200.162 202.619 199.845L200.979 199.434C199.801 199.139 198.553 199.376 197.566 200.083L196.607 200.77C196.131 201.111 195.521 201.203 194.966 201.017C193.939 200.674 192.841 201.296 192.606 202.353L192.404 203.266C192.219 204.1 192.445 204.972 193.012 205.612L195.336 208.234C195.667 208.607 195.85 209.088 195.85 209.586C195.85 210.712 194.937 211.625 193.811 211.625H192.785C192.34 211.625 191.901 211.528 191.497 211.342L188.646 210.022C187.091 209.302 185.249 209.677 184.098 210.946L183.052 212.1C182.128 213.12 182.237 214.704 183.293 215.586C183.844 216.046 184.163 216.727 184.163 217.445V217.774C184.163 218.046 184.099 218.314 183.978 218.558C183.558 219.399 182.551 219.761 181.692 219.378L179.47 218.388C179.173 218.256 178.853 218.188 178.528 218.188H177.153C176.635 218.188 176.215 218.607 176.215 219.125C176.215 219.643 175.796 220.062 175.278 220.062H174.256C172.92 220.062 171.976 221.371 172.397 222.64L172.561 223.132C172.801 223.852 173.376 224.411 174.103 224.63L176.002 225.201C177.05 225.517 177.966 226.167 178.609 227.054L179.892 228.823C180.754 230.012 180.701 231.634 179.762 232.763C179.283 233.34 179.02 234.067 179.02 234.817V240.805C179.02 240.999 178.863 241.156 178.669 241.156C178.332 241.156 178.189 241.585 178.458 241.788L180.823 243.567C181.16 243.82 181.358 244.216 181.358 244.638V244.862C181.358 245.474 181.046 246.043 180.53 246.372L177.195 248.5C176.585 248.889 176.215 249.563 176.215 250.287C176.215 251.457 177.164 252.406 178.335 252.406H180.374C181.021 252.406 181.659 252.557 182.237 252.847L184.975 254.22C185.67 254.568 186.438 254.75 187.216 254.75H188.035C189.684 254.75 191.203 255.645 192.002 257.088L192.541 258.06C192.86 258.635 192.903 259.323 192.66 259.934C192.328 260.766 191.522 261.312 190.625 261.312H190.562C189.164 261.312 188.094 262.559 188.306 263.942L188.617 265.967C188.759 266.897 188.573 267.848 188.09 268.656L184.268 275.042C183.601 276.157 182.525 276.969 181.269 277.305L176.709 278.524C176.381 278.612 176.063 278.733 175.759 278.885L173.92 279.807C172.432 280.553 170.672 280.51 169.223 279.693L165.553 277.623C164.671 277.126 163.566 277.277 162.851 277.994L162.772 278.074C162.4 278.447 161.895 278.656 161.368 278.656C160.274 278.656 159.386 277.769 159.386 276.674V273.337C159.386 272.227 159.017 271.149 158.337 270.272L157.163 268.759C156.483 267.882 156.114 266.804 156.114 265.694V263.116C156.114 260.711 154.401 258.647 152.038 258.202L151.346 258.072C149.658 257.755 148.251 256.593 147.62 254.996L138.982 233.137C138.872 232.859 138.788 232.571 138.729 232.278L137.829 227.765C137.564 226.437 136.772 225.273 135.634 224.54L133.161 222.946C131.733 222.025 130.87 220.442 130.87 218.743V216.715C130.87 215.837 131.101 214.975 131.54 214.215L135.157 207.951C135.686 207.034 136.664 206.469 137.723 206.469H138.162C139.557 206.469 140.687 205.338 140.687 203.944C140.687 203.17 140.332 202.439 139.725 201.961L135.241 198.428C134.522 197.862 133.973 197.109 133.652 196.252L133.018 194.558C132.834 194.064 132.572 193.603 132.244 193.191Z" fill="#053C57" stroke="#F7F8F9" stroke-width="1.5"/>
<rect id="Rectangle 67_11" x="152" y="186" width="74" height="28" rx="14" fill="#229FBD"/>
<path id="&#236;&#182;&#169;&#236;&#178;&#173;&#235;&#182;&#129;&#235;&#143;&#132;" d="M165.335 200.816H167.447V202.944H165.335V200.816ZM159.703 199.728H173.095V201.392H159.703V199.728ZM165.335 192.656H167.447V194.704H165.335V192.656ZM165.207 194.864H167.079V195.152C167.079 197.392 164.935 198.976 160.887 199.248L160.263 197.648C163.831 197.44 165.207 196.288 165.207 195.152V194.864ZM165.703 194.864H167.575V195.152C167.575 196.288 168.951 197.44 172.519 197.648L171.895 199.248C167.847 198.976 165.703 197.392 165.703 195.152V194.864ZM160.983 193.936H171.815V195.584H160.983V193.936ZM166.375 202.4C169.607 202.4 171.511 203.296 171.511 204.912C171.511 206.544 169.607 207.424 166.375 207.424C163.143 207.424 161.223 206.544 161.223 204.912C161.223 203.296 163.143 202.4 166.375 202.4ZM166.375 203.968C164.359 203.968 163.383 204.24 163.383 204.912C163.383 205.568 164.359 205.856 166.375 205.856C168.375 205.856 169.367 205.568 169.367 204.912C169.367 204.24 168.375 203.968 166.375 203.968ZM177.749 195.2H179.461V195.744C179.461 198.32 178.149 200.64 175.317 201.456L174.325 199.792C176.709 199.12 177.749 197.424 177.749 195.744V195.2ZM178.149 195.2H179.877V195.744C179.877 197.264 180.933 198.816 183.317 199.44L182.357 201.088C179.509 200.336 178.149 198.176 178.149 195.744V195.2ZM174.837 194.144H182.789V195.808H174.837V194.144ZM177.749 192.56H179.877V194.8H177.749V192.56ZM182.373 196.56H185.205V198.272H182.373V196.56ZM184.693 192.608H186.821V201.552H184.693V192.608ZM181.797 201.808C184.933 201.808 186.869 202.832 186.869 204.608C186.869 206.384 184.933 207.424 181.797 207.424C178.661 207.424 176.725 206.384 176.725 204.608C176.725 202.832 178.661 201.808 181.797 201.808ZM181.797 203.424C179.861 203.424 178.853 203.808 178.853 204.608C178.853 205.408 179.861 205.808 181.797 205.808C183.749 205.808 184.757 205.408 184.757 204.608C184.757 203.808 183.749 203.424 181.797 203.424ZM194.756 200.944H196.868V203.184H194.756V200.944ZM189.14 199.664H202.532V201.344H189.14V199.664ZM190.628 202.592H200.916V207.424H198.788V204.272H190.628V202.592ZM190.852 192.976H192.948V194.288H198.724V192.976H200.836V198.704H190.852V192.976ZM192.948 195.872V197.04H198.724V195.872H192.948ZM205.427 199.216H215.843V200.912H205.427V199.216ZM203.875 204.016H217.283V205.76H203.875V204.016ZM209.491 199.984H211.619V204.576H209.491V199.984ZM205.427 193.616H215.731V195.328H207.555V199.952H205.427V193.616Z" fill="#F7F8F9"/>
</g>
<g id="kangwon">
<path id="Vector 9" d="M197.858 35.7881L199.357 39.2733C199.735 40.1506 200.355 40.9014 201.146 41.4369L205.797 44.5868L210.111 47.5092C210.769 47.9549 211.658 47.4835 211.658 46.6886L212.517 24.0163C212.563 22.7897 213.432 21.7491 214.63 21.4838C215.898 21.2033 217.185 21.865 217.695 23.0589L234.011 61.2716C234.114 61.5133 234.198 61.7628 234.262 62.0177L235.356 66.3756C235.499 66.9471 235.742 67.4887 236.074 67.9754L252.234 91.6729C252.38 91.8866 252.542 92.0888 252.719 92.2775L271.135 111.9C272.039 112.863 272.302 114.263 271.81 115.489C271.192 117.025 271.774 118.783 273.186 119.648L274.45 120.423C275.933 121.332 276.837 122.947 276.837 124.686V128.425C276.837 129.137 288.18 145.159 294.661 154.214C295.269 155.064 295.593 156.077 295.593 157.122V160.908C295.593 161.354 295.698 161.795 295.898 162.193C296.532 163.457 296.151 164.995 295.023 165.846C291.821 168.263 287.929 171.395 287.622 171.395C287.334 171.395 287.211 173.324 286.533 174.854C286.167 175.678 285.211 175.933 284.336 175.715C284.028 175.638 283.737 175.505 283.478 175.323L278.436 171.778C276.882 170.685 274.843 170.568 273.173 171.475L272.449 171.868C271.35 172.465 270.068 172.629 268.854 172.327L266.105 171.642C264.337 171.202 262.469 171.759 261.23 173.095L259.799 174.639C258.467 176.077 256.535 176.337 255.169 174.931C253.455 173.166 251.521 170.928 251.047 170.928C250.524 170.928 249.438 172.972 248.617 174.842C248.079 176.067 246.794 176.839 245.475 176.62C245.129 176.562 244.797 176.439 244.498 176.255L240.057 173.534C239.271 173.052 238.367 172.796 237.444 172.796H234.437C232.546 172.796 230.817 171.73 229.968 170.04L229.477 169.06C228.958 168.285 227.911 168.076 227.134 168.591L224.695 170.211C224.445 170.377 224.175 170.509 223.89 170.603C222.474 171.073 220.918 170.56 220.06 169.339L218.223 166.725C217.428 165.669 215.956 165.401 214.841 166.108L212.825 167.386C212.115 167.836 211.207 167.826 210.507 167.361L209.183 166.482C208.407 165.967 208.479 164.805 209.313 164.389L212.596 162.521C213.437 161.963 213.041 160.653 212.032 160.653H208.834C207.997 160.653 207.249 160.127 206.966 159.338L206.836 158.973C206.125 156.991 203.447 156.69 202.314 158.464L202.277 158.522C201.975 158.995 201.525 159.356 200.998 159.55L193.283 162.381C193.031 162.474 192.764 162.521 192.495 162.521C191.376 162.521 190.422 161.713 190.237 160.61L189.969 159.005C189.754 157.72 188.846 156.659 187.61 156.249C186.27 155.804 184.793 156.204 183.862 157.265L183.454 157.729C182.615 158.685 182.287 159.986 182.574 161.226L182.957 162.878C183.264 164.203 182.389 165.512 181.047 165.734C180.824 165.772 180.596 165.776 180.37 165.748L177.967 165.449C177.302 165.366 176.626 165.418 175.981 165.602L170.872 167.056C170.56 167.144 170.229 167.137 169.922 167.035C169.348 166.844 168.929 166.349 168.837 165.751L168.049 160.653L166.781 130.753C166.697 128.775 165.454 127.034 163.612 126.31L159 124.5L153.419 122.718C151.994 122.264 150.848 121.195 150.294 119.805L144.856 106.15C144.313 104.786 144.397 103.252 145.086 101.956L149.459 93.7185C150.478 91.8005 150.142 89.4444 148.628 87.8876L138.851 77.8351C138.317 77.2857 137.663 76.8665 136.941 76.6099L125.768 72.6386C124.611 72.2273 123.646 71.4046 123.056 70.3273L116.863 59.0081C116.306 57.9903 116.13 56.8072 116.368 55.6717L117.247 51.4697C117.701 49.2962 120.436 48.5652 121.915 50.222C122.035 50.3571 122.169 50.4797 122.314 50.5881L123.467 51.4498C123.795 51.6943 124.192 51.8263 124.601 51.8263C125.357 51.8263 126.041 51.3761 126.34 50.6813L126.551 50.1916C126.977 49.1996 127.954 48.5569 129.034 48.5569H130.217C131.488 48.5569 132.578 49.4654 132.806 50.7157L132.989 51.7203C133.18 52.763 134.248 53.3962 135.254 53.0622C135.82 52.8743 136.251 52.4102 136.396 51.8317L136.988 49.4742C137.063 49.1747 137.11 48.8689 137.129 48.5606L137.848 36.7481C137.938 35.2603 139.518 34.3475 140.852 35.012L149.897 41.1543C150.725 41.7171 151.704 42.018 152.706 42.018H154.399C155.639 42.018 156.836 41.5569 157.755 40.7243L165.214 33.9704C166.133 33.1377 167.329 32.6766 168.57 32.6766H173.868C174.666 32.6766 175.453 32.8678 176.162 33.2342L186.898 38.7786C187.453 39.0657 188.07 39.2156 188.696 39.2156H189.352C190.865 39.2156 192.161 38.1345 192.433 36.6467L192.478 36.3979C192.723 35.0542 193.894 34.0778 195.26 34.0778C196.39 34.0778 197.411 34.7503 197.858 35.7881Z" fill="#053C57" stroke="#F7F8F9" stroke-width="1.5"/>
<rect id="Rectangle 67_12" x="170" y="85" width="74" height="28" rx="14" fill="#229FBD"/>
<path id="&#234;&#176;&#149;&#236;&#155;&#144;&#235;&#143;&#132;" d="M194.598 91.608H196.726V100.184H194.598V91.608ZM196.134 95.064H198.694V96.808H196.134V95.064ZM190.358 92.568H192.646C192.646 96.552 190.182 99.32 185.814 100.536L184.95 98.84C188.518 97.864 190.358 95.928 190.358 93.64V92.568ZM185.654 92.568H191.654V94.28H185.654V92.568ZM191.926 100.376C194.918 100.376 196.886 101.544 196.886 103.4C196.886 105.272 194.918 106.44 191.926 106.44C188.934 106.44 186.934 105.272 186.934 103.4C186.934 101.544 188.934 100.376 191.926 100.376ZM191.926 102.024C190.118 102.024 189.046 102.504 189.046 103.4C189.046 104.312 190.118 104.792 191.926 104.792C193.734 104.792 194.806 104.312 194.806 103.4C194.806 102.504 193.734 102.024 191.926 102.024ZM203.637 99.208H205.765V102.456H203.637V99.208ZM210.133 91.608H212.261V102.824H210.133V91.608ZM201.589 104.472H212.581V106.168H201.589V104.472ZM201.589 101.768H203.717V104.92H201.589V101.768ZM199.989 99.848L199.733 98.152C202.437 98.152 206.053 98.12 209.157 97.72L209.285 99.24C206.133 99.768 202.661 99.848 199.989 99.848ZM207.333 100.216H210.597V101.672H207.333V100.216ZM204.501 92.12C206.661 92.12 208.181 93.192 208.181 94.76C208.181 96.344 206.661 97.4 204.501 97.4C202.325 97.4 200.805 96.344 200.805 94.76C200.805 93.192 202.325 92.12 204.501 92.12ZM204.501 93.672C203.509 93.672 202.821 94.04 202.821 94.76C202.821 95.48 203.509 95.848 204.501 95.848C205.477 95.848 206.165 95.48 206.165 94.76C206.165 94.04 205.477 93.672 204.501 93.672ZM216.067 98.216H226.483V99.912H216.067V98.216ZM214.515 103.016H227.923V104.76H214.515V103.016ZM220.131 98.984H222.259V103.576H220.131V98.984ZM216.067 92.616H226.371V94.328H218.195V98.952H216.067V92.616Z" fill="#F7F8F9"/>
</g>
<g id="daejeon">
<path id="Vector 12" d="M138.159 234.612L139.238 232.277C139.638 231.412 140.877 231.441 141.236 232.324L141.331 232.602C141.839 234.103 143.248 235.113 144.833 235.113H145.694C146.951 235.113 148.035 235.998 148.285 237.23L148.326 237.432C148.59 238.727 149.838 239.575 151.139 239.342C152.63 239.076 154 240.222 154 241.738V246.121C154 247.678 153.274 249.146 152.037 250.092L151.708 250.344C150.471 251.29 149.745 252.759 149.745 254.316V256.958C149.745 257.227 147.926 258.651 146.265 259.886C145.277 260.621 143.905 260.511 143.028 259.649L142.65 259.278C141.533 258.179 139.656 258.58 139.086 260.039C138.527 261.466 136.711 261.89 135.579 260.856L131.857 257.458C131.508 257.139 131.309 256.688 131.309 256.216C131.309 255.539 130.904 254.928 130.28 254.665L129.91 254.509C128.826 254.052 128.265 252.848 128.613 251.724L131.194 243.387C131.27 243.139 131.328 242.885 131.365 242.628L131.487 241.792C131.676 240.49 132.37 239.316 133.419 238.523L137.487 235.446C137.776 235.227 138.007 234.941 138.159 234.612Z" fill="#053C57" stroke="#F7F8F9" stroke-width="1.5"/>
<rect id="Rectangle 67_13" x="103" y="250" width="74" height="28" rx="14" fill="#229FBD"/>
<path id="&#235;&#140;&#128;&#236;&#160;&#132;" d="M136.625 256.608H138.641V271.424H136.625V256.608ZM134.641 262.304H137.105V264.016H134.641V262.304ZM133.313 256.864H135.281V270.72H133.313V256.864ZM126.337 266.336H127.377C129.201 266.336 130.721 266.272 132.481 265.952L132.641 267.68C130.849 268.032 129.281 268.08 127.377 268.08H126.337V266.336ZM126.337 258.32H131.809V260.032H128.449V267.168H126.337V258.32ZM148.576 260.432H152.032V262.144H148.576V260.432ZM150.912 256.624H153.04V267.424H150.912V256.624ZM143.264 269.472H153.376V271.168H143.264V269.472ZM143.264 266.512H145.392V270.48H143.264V266.512ZM144.064 258.56H145.792V259.488C145.792 262.272 144.48 264.848 141.632 265.792L140.56 264.096C143.008 263.296 144.064 261.36 144.064 259.488V258.56ZM144.512 258.56H146.224V259.488C146.224 261.216 147.232 263.056 149.568 263.84L148.528 265.504C145.776 264.592 144.512 262.128 144.512 259.488V258.56ZM141.136 257.616H149.104V259.296H141.136V257.616Z" fill="#F7F8F9"/>
</g>
<g id="gyeonggi">
<path id="Vector 6" d="M107.774 64.3567L107.607 60.2027C107.556 58.9283 108.314 57.76 109.498 57.287C109.743 57.1893 109.998 57.1239 110.261 57.1007C111.407 56.9996 114.796 56.7902 116.903 57.608C118.749 58.3247 120.494 59.7083 121.593 61.3541C122.454 62.6439 123.217 64.5257 123.789 66.1843C124.318 67.715 126.334 68.2149 127.437 67.029L128.741 65.6274C129.538 64.7701 130.973 65.3343 130.973 66.505L130.765 68.5812C130.607 70.1629 131.405 71.6872 132.795 72.4583C133.996 73.1243 135.455 73.1243 136.656 72.4583L138.947 71.1877C140.581 70.168 142.699 71.3429 142.699 73.2691V75.8703L142.923 78.1094C143.078 79.6505 143.938 81.0331 145.252 81.853L146.174 82.4289C146.655 82.7288 147.229 82.843 147.788 82.75L149.934 82.3928C150.989 82.2172 151.78 83.339 151.26 84.2738C150.786 85.1252 151.402 86.1722 152.376 86.1722H153.61C154.613 86.1722 155.462 86.915 155.595 87.9097L155.91 90.2718C156.149 92.0613 155.348 93.8305 153.845 94.8308L151.495 96.3948C150.102 97.3218 149.265 98.884 149.265 100.557V108.763C149.265 109.476 149.843 110.054 150.556 110.054C151.492 110.054 152.127 111.023 151.811 111.904C151.537 112.666 151.263 113.539 151.142 114.268C151.041 114.869 151.008 115.589 151.008 116.282C151.008 117.683 152.369 118.616 153.721 118.248L154.741 118.013C156.04 117.714 157.404 117.946 158.531 118.656L164.61 122.49C165.313 122.933 166.116 123.194 166.945 123.249L171.759 123.57C172.369 123.61 172.931 123.909 173.306 124.39L174.397 125.791C175.049 126.627 174.453 127.848 173.392 127.848C173.256 127.848 173.12 127.87 172.99 127.913L172.71 128.006C171.342 128.461 170.46 129.805 170.749 131.218C170.972 132.304 171.304 133.531 171.779 134.403C172.735 136.161 172.842 138.329 171.664 139.946L170.741 141.214C170.193 141.966 169.866 142.855 169.796 143.783L168.635 159.243C168.545 160.437 168.029 161.56 167.181 162.407L166.808 162.78C166.373 163.213 166.022 163.724 165.773 164.284L165.209 165.551C164.65 166.806 163.354 167.567 161.986 167.443C160.353 167.294 158.871 168.401 158.549 170.009L158.092 172.29C157.845 173.522 157.144 174.616 156.127 175.354L154.154 176.787C153.177 177.496 151.875 177.568 150.826 176.969C149.862 176.419 148.676 176.432 147.724 177.002L141.541 180.706C140.49 181.336 139.769 182.394 139.567 183.602C139.215 185.713 137.323 187.216 135.187 187.083L133.003 186.946C131.988 186.883 130.979 187.138 130.116 187.677C128.618 188.612 126.732 188.664 125.184 187.814L121.212 185.633C119.514 184.701 117.396 185.065 116.108 186.512C115.145 187.594 113.688 188.096 112.263 187.837L111.383 187.678C110.11 187.446 108.796 187.718 107.719 188.435L105.659 189.806C103.728 191.092 101.166 190.88 99.472 189.294L88.9372 179.434C87.9272 178.489 87.354 177.167 87.354 175.783V175.593C87.354 174.685 87.6009 173.795 88.0684 173.017L90.1681 169.523L91.1684 168.109C91.9593 166.99 90.5467 165.639 89.4646 166.48L86.885 169.055C84.8004 171.325 81.0155 170.184 80.534 167.139L80.4161 166.394C80.3515 165.985 80.3499 165.569 80.4113 165.16L81.1858 160.005C81.5077 157.862 83.1726 156.171 85.3097 155.816L87.2579 155.491C87.3219 155.481 87.3866 155.475 87.4514 155.475H91.0483C91.8623 155.475 92.017 154.319 91.2316 154.105C91.1487 154.082 91.0707 154.044 91.0015 153.994L83.321 148.343C82.5843 147.801 82.0103 147.068 81.6616 146.222L72.4844 123.971C72.3917 123.746 72.3155 123.515 72.2564 123.279L70.1498 114.866C70.0503 114.469 70 114.061 70 113.652V108.186C70 106.373 71.4699 104.903 73.2832 104.903H76.7257C79.4871 104.903 81.7257 102.664 81.7257 99.9028V90.3106C81.7257 88.6149 80.8353 87.0436 79.3805 86.1722C77.8011 85.3121 78.2744 82.929 80.0626 82.7377L84.4765 82.2656C86.1129 82.0905 87.354 80.7096 87.354 79.0639V76.6283C87.354 75.9077 87.8446 75.2796 88.5437 75.1051C89.6992 74.8167 90.1254 73.3973 89.32 72.5201L88.9871 72.1576C87.865 70.9355 88.7805 68.9667 90.4381 69.0372L102.566 69.5524C105.487 69.6765 107.891 67.2783 107.774 64.3567Z" fill="#053C57" stroke="#F7F8F9" stroke-width="1.5"/>
<rect id="Rectangle 67_14" x="82" y="143" width="74" height="28" rx="14" fill="#229FBD"/>
<path id="&#234;&#178;&#189;&#234;&#184;&#176;&#235;&#143;&#132;" d="M104.198 151.944H107.67V153.64H104.198V151.944ZM104.086 155.016H107.558V156.712H104.086V155.016ZM107.334 149.608H109.462V158.136H107.334V149.608ZM102.502 150.616H104.774C104.774 154.648 102.502 157.24 98.0059 158.472L97.1739 156.792C100.934 155.816 102.502 153.96 102.502 151.64V150.616ZM97.9899 150.616H103.99V152.312H97.9899V150.616ZM104.55 158.328C107.558 158.328 109.558 159.48 109.558 161.336C109.558 163.192 107.558 164.36 104.55 164.36C101.542 164.36 99.5419 163.192 99.5419 161.336C99.5419 159.48 101.542 158.328 104.55 158.328ZM104.55 159.96C102.742 159.96 101.654 160.424 101.654 161.336C101.654 162.248 102.742 162.696 104.55 162.696C106.374 162.696 107.462 162.248 107.462 161.336C107.462 160.424 106.374 159.96 104.55 159.96ZM121.989 149.608H124.133V164.424H121.989V149.608ZM117.621 151.144H119.733C119.733 155.672 118.197 159.384 112.933 161.928L111.829 160.232C116.085 158.184 117.621 155.496 117.621 151.528V151.144ZM112.613 151.144H118.629V152.824H112.613V151.144ZM128.067 156.216H138.483V157.912H128.067V156.216ZM126.515 161.016H139.923V162.76H126.515V161.016ZM132.131 156.984H134.259V161.576H132.131V156.984ZM128.067 150.616H138.371V152.328H130.195V156.952H128.067V150.616Z" fill="#F7F8F9"/>
</g>
<g id="seoul">
<path id="Vector 8" d="M90.2971 125.897L90.3223 125.694C90.4118 124.968 90.7719 124.302 91.3306 123.831C92.4242 122.907 94.0278 122.918 95.1084 123.857L95.6088 124.292C96.1449 124.757 96.8707 124.94 97.5635 124.784L98.4409 124.586C99.5063 124.347 100.019 123.129 99.4454 122.2L98.9243 121.355C98.6187 120.859 98.882 120.209 99.4465 120.066C99.8548 119.963 100.129 119.58 100.094 119.16L99.7178 114.584C99.701 114.38 99.7313 114.175 99.8064 113.985C100.174 113.053 101.401 112.845 102.055 113.603L102.304 113.892C103.036 114.739 104.395 114.566 104.89 113.562L105.232 112.869C105.521 112.282 106.072 111.866 106.716 111.747L107.188 111.66C109.051 111.317 110.769 112.747 110.769 114.641V117.197C110.769 117.649 111.136 118.016 111.589 118.016C112.114 118.016 112.504 118.505 112.387 119.017L112.13 120.147C111.79 121.639 113.4 122.814 114.718 122.035L115.089 121.816C116.014 121.269 117.207 121.583 117.743 122.514L119.158 124.972C119.702 125.919 119.903 127.024 119.726 128.101L118.852 133.414C118.698 134.355 118.277 135.232 117.641 135.942L114.685 139.237C114.249 139.722 113.627 140 112.975 140C112.178 140 111.438 139.587 111.019 138.909L109.924 137.132C109.589 136.589 108.996 136.258 108.358 136.258C107.588 136.258 106.9 136.737 106.632 137.459L106.385 138.129C105.969 139.253 104.896 140 103.697 140H101.957C100.792 140 99.6628 139.593 98.7657 138.849L95.4536 136.103C95.2102 135.901 94.9038 135.79 94.5876 135.79H94.3897C93.7497 135.79 93.2308 135.271 93.2308 134.631V134.437C93.2308 134.119 93.4092 133.829 93.6923 133.685C93.9754 133.542 94.1538 133.252 94.1538 132.934V131.856C94.1538 130.834 93.5548 129.908 92.6233 129.488L92.2131 129.303C90.8971 128.711 90.1204 127.33 90.2971 125.897Z" fill="#053C57" stroke="#F7F8F9" stroke-width="1.5"/>
<rect id="Rectangle 67_15" x="102" y="93" width="74" height="28" rx="14" fill="#229FBD"/>
<path id="&#236;&#132;&#156;&#236;&#154;&#184;" d="M132.393 103.232H136.297V104.944H132.393V103.232ZM128.361 99.744H130.089V101.888C130.089 105.616 128.825 109.056 126.041 110.448L124.713 108.736C127.241 107.568 128.361 104.704 128.361 101.888V99.744ZM128.809 99.744H130.505V101.888C130.505 104.704 131.577 107.408 134.025 108.496L132.761 110.192C129.977 108.848 128.809 105.584 128.809 101.888V99.744ZM135.241 98.592H137.353V113.456H135.241V98.592ZM145.256 105.664H147.384V107.728H145.256V105.664ZM146.344 98.752C149.72 98.752 151.704 99.632 151.704 101.264C151.704 102.896 149.72 103.792 146.344 103.792C142.952 103.792 140.984 102.896 140.984 101.264C140.984 99.632 142.952 98.752 146.344 98.752ZM146.344 100.304C144.2 100.304 143.192 100.608 143.192 101.264C143.192 101.952 144.2 102.24 146.344 102.24C148.488 102.24 149.496 101.952 149.496 101.264C149.496 100.608 148.488 100.304 146.344 100.304ZM139.64 104.432H153.032V106.112H139.64V104.432ZM141.176 107.072H151.416V110.88H143.288V112.192H141.192V109.408H149.32V108.656H141.176V107.072ZM141.192 111.728H151.8V113.328H141.192V111.728Z" fill="#F7F8F9"/>
</g>
<g id="inchon">
<path id="Vector 7" d="M78.4351 121.727H77L72.5914 122.173C72.5313 122.179 72.4735 122.199 72.4225 122.231C72.2087 122.367 71.924 122.265 71.8463 122.023L68.3247 111.107C67.6052 108.876 65.1601 107.708 62.9727 108.549C61.4686 109.127 60.4455 110.536 60.3608 112.146L60.0829 117.425C60.0289 118.45 60.2919 119.467 60.836 120.338L63.213 124.141C64.255 125.808 66.321 126.52 68.1686 125.848L68.8416 125.603C69.2685 125.448 69.6322 125.156 69.8759 124.772L70.7263 123.435C71.6754 121.942 73.9897 122.739 73.8182 124.5V132.306C73.8182 133.937 74.6142 135.466 75.9509 136.402L77.0118 137.145C77.8753 137.749 78.4543 138.68 78.6145 139.722C78.9653 142.002 81.2232 143.468 83.4487 142.861L83.7633 142.775C84.1016 142.683 84.4268 142.548 84.7312 142.374L86.6693 141.267C87.1839 140.973 87.7663 140.818 88.359 140.818H88.8308C90.1513 140.818 91.2947 139.901 91.5812 138.612C91.8336 137.476 91.3618 136.302 90.3937 135.656L89.3284 134.946C88.4417 134.355 87.9091 133.36 87.9091 132.294C87.9091 131.63 88.1167 130.982 88.5028 130.442L89.9456 128.422C90.1022 128.202 90.2251 127.961 90.3103 127.705C90.7524 126.379 90.1103 124.935 88.8295 124.374L84.9606 122.682C84.2333 122.363 83.6749 121.752 83.4239 120.999L83.1998 120.327C83.02 119.787 82.5651 119.386 82.0076 119.274C81.2242 119.118 80.4468 119.569 80.1941 120.327L80.1359 120.501C79.8919 121.233 79.2068 121.727 78.4351 121.727Z" fill="#053C57" stroke="#F7F8F9" stroke-width="1.5"/>
<rect id="Rectangle 67_16" x="20" y="101" width="74" height="28" rx="14" fill="#229FBD"/>
<path id="&#236;&#157;&#184;&#236;&#178;&#156;" d="M53.0973 107.624H55.2413V118.264H53.0973V107.624ZM45.3693 120.472H55.6093V122.168H45.3693V120.472ZM45.3693 117.192H47.4973V121.16H45.3693V117.192ZM47.1773 108.552C49.4493 108.552 51.1933 110.12 51.1933 112.312C51.1933 114.488 49.4493 116.072 47.1773 116.072C44.9053 116.072 43.1453 114.488 43.1453 112.312C43.1453 110.12 44.9053 108.552 47.1773 108.552ZM47.1773 110.392C46.0733 110.392 45.2253 111.096 45.2253 112.312C45.2253 113.512 46.0733 114.216 47.1773 114.216C48.2653 114.216 49.1133 113.512 49.1133 112.312C49.1133 111.096 48.2653 110.392 47.1773 110.392ZM60.968 110.504H62.696V111.08C62.696 113.784 61.384 116.2 58.568 117.08L57.544 115.416C59.944 114.664 60.968 112.872 60.968 111.08V110.504ZM61.352 110.504H63.096V111.08C63.096 112.744 64.136 114.456 66.536 115.176L65.512 116.84C62.712 116.008 61.352 113.672 61.352 111.08V110.504ZM58.056 109.352H66.008V111.016H58.056V109.352ZM60.968 107.72H63.096V109.976H60.968V107.72ZM65.544 111.912H68.984V113.656H65.544V111.912ZM67.912 107.624H70.04V118.584H67.912V107.624ZM60.264 120.472H70.376V122.168H60.264V120.472ZM60.264 117.672H62.392V121.592H60.264V117.672Z" fill="#F7F8F9"/>
</g>
</g>
</g>
</svg>
